<?xml version="1.0" encoding="UTF-8"?>
<svg id="Layer_1" data-name="Layer 1" xmlns="http://www.w3.org/2000/svg" viewBox="0 0 31.33 47.35">
  <defs>
    <style>
      .cls-1 {
        fill: #010101;
      }

      .cls-2 {
        fill: #ed8823;
      }

      .cls-3 {
        fill: #e6e7e7;
      }

      .cls-4 {
        fill: #ffca08;
      }

      .cls-5 {
        fill: #d2d3d4;
      }

      .cls-6 {
        fill: #2c80c3;
      }

      .cls-7 {
        fill: #4ebce4;
      }
    </style>
  </defs>
  <path class="cls-3" d="m23.86,30.62l-6.43-5.51c-.14-.12-.26-.28-.34-.45-.08-.17-.12-.36-.12-.55v-.05h-2.62v.05c0,.19-.04.38-.12.55-.08.17-.19.32-.34.45l-6.43,5.51c-.72.62-1.29,1.38-1.69,2.24-.39.86-.6,1.79-.6,2.74v.22c4.63-.36,5.06-2.58,10.48-2.58s5.86,2.21,10.48,2.58v-.22c0-.94-.21-1.88-.6-2.74-.39-.86-.97-1.62-1.69-2.24Z"/>
  <path class="cls-3" d="m26.15,8.99v3.54c0,1.31-.39,2.58-1.12,3.67H6.3c-.73-1.08-1.12-2.36-1.12-3.67v-3.54h20.97Z"/>
  <path class="cls-4" d="m26.15,35.81v3.32H5.18v-3.32c4.63-.36,5.06-2.58,10.48-2.58s5.86,2.21,10.48,2.58Z"/>
  <path class="cls-4" d="m16.98,24.01v.05h-2.62v-.05c0-.19-.04-.38-.12-.55-.08-.17-.19-.32-.34-.45l-6.43-5.51c-.44-.38-.84-.82-1.17-1.3h18.73c-.33.48-.72.92-1.17,1.3l-6.43,5.51c-.14.12-.26.28-.34.45-.08.17-.12.36-.12.55Z"/>
  <path class="cls-7" d="m26.15,39.14c.52,0,1.02.21,1.39.58s.58.87.58,1.39-.21,1.02-.58,1.39-.87.58-1.39.58H5.18c-.52,0-1.02-.21-1.39-.58s-.58-.87-.58-1.39.21-1.02.58-1.39.87-.58,1.39-.58h20.97Z"/>
  <path class="cls-7" d="m26.15,5.06c.52,0,1.02.21,1.39.58s.58.87.58,1.39-.21,1.02-.58,1.39c-.37.37-.87.58-1.39.58H5.18c-.52,0-1.02-.21-1.39-.58-.37-.37-.58-.87-.58-1.39s.21-1.02.58-1.39.87-.58,1.39-.58h20.97Z"/>
  <path class="cls-5" d="m15.67,24.07v.05c0,.19-.04.38-.12.55-.08.17-.19.32-.34.45l-6.43,5.51c-.72.62-1.29,1.38-1.69,2.24-.39.86-.6,1.79-.6,2.74v.05c-.12.02-.25.05-.38.06-.08.01-.16.03-.25.03-.22.03-.45.05-.68.07v-.22c0-.94.21-1.88.6-2.74.39-.86.97-1.62,1.69-2.24l6.43-5.51c.14-.12.26-.28.34-.45.08-.17.12-.36.12-.55v-.05h1.31Z"/>
  <path class="cls-5" d="m7.61,16.2h-1.31c-.73-1.08-1.12-2.36-1.12-3.67v-3.54h1.31v3.54c0,1.31.39,2.58,1.12,3.67Z"/>
  <path class="cls-2" d="m6.49,35.65v3.49h-1.31v-3.32c.24-.02.47-.05.68-.07.09,0,.17-.02.25-.03.13-.01.26-.04.38-.06Z"/>
  <path class="cls-2" d="m15.67,24.01v.05h-1.31v-.05c0-.19-.04-.38-.12-.55-.08-.17-.19-.32-.34-.45l-6.43-5.51c-.44-.38-.84-.82-1.17-1.3h1.31c.33.48.72.92,1.17,1.3l6.43,5.51c.14.12.26.28.34.45.08.17.12.36.12.55Z"/>
  <path class="cls-6" d="m6.49,43.07h-1.31c-.52,0-1.02-.21-1.39-.58s-.58-.87-.58-1.39.21-1.02.58-1.39.87-.58,1.39-.58h1.31c-.52,0-1.02.21-1.39.58-.37.37-.58.87-.58,1.39s.21,1.02.58,1.39c.37.37.87.58,1.39.58Z"/>
  <path class="cls-6" d="m6.49,8.99h-1.31c-.52,0-1.02-.21-1.39-.58-.37-.37-.58-.87-.58-1.39s.21-1.02.58-1.39.87-.58,1.39-.58h1.31c-.52,0-1.02.21-1.39.58-.37.37-.58.87-.58,1.39s.21,1.02.58,1.39c.37.37.87.58,1.39.58Z"/>
  <path class="cls-1" d="m26.8,38.57v-2.98c0-1.04-.22-2.07-.66-3.01-.43-.94-1.07-1.78-1.86-2.46l-6.43-5.51c-.07-.06-.13-.14-.17-.22-.04-.09-.06-.18-.06-.27v-.1c0-.09.02-.19.06-.27.04-.09.1-.16.17-.22l6.43-5.51c.79-.68,1.42-1.52,1.86-2.46.43-.94.66-1.97.66-3.01v-2.98c.62-.16,1.15-.54,1.51-1.06.36-.53.51-1.17.43-1.8-.08-.63-.39-1.21-.87-1.63s-1.09-.65-1.73-.65H5.18c-.64,0-1.25.23-1.73.65-.48.42-.79,1-.87,1.63-.08.63.07,1.27.43,1.8.36.53.9.91,1.51,1.06v2.98c0,1.04.22,2.07.66,3.01.43.94,1.07,1.78,1.86,2.46l6.43,5.51c.07.06.13.14.17.22.04.09.06.18.06.27v.1c0,.09-.02.19-.06.27-.04.09-.1.16-.17.22l-6.43,5.51c-.79.68-1.42,1.52-1.86,2.46-.43.94-.66,1.97-.66,3.01v2.98c-.62.16-1.15.54-1.51,1.06-.36.53-.51,1.17-.43,1.8.08.63.39,1.21.87,1.63.48.42,1.09.65,1.73.65h20.97c.64,0,1.25-.23,1.73-.65s.79-1,.87-1.63c.08-.63-.07-1.27-.43-1.8-.36-.53-.9-.91-1.51-1.06Zm-20.97-2.17c1.46-.18,2.87-.61,4.19-1.26,1.75-.87,3.68-1.3,5.64-1.25,1.95-.05,3.89.38,5.64,1.25,1.32.65,2.74,1.07,4.19,1.26v2.08H5.84v-2.08ZM3.87,7.03c0-.35.14-.68.38-.93.25-.25.58-.38.93-.38h20.97c.35,0,.68.14.93.38.25.25.38.58.38.93s-.14.68-.38.93c-.25.25-.58.38-.93.38H5.18c-.35,0-.68-.14-.93-.38-.25-.25-.38-.58-.38-.93Zm1.97,2.62h19.66v2.88c0,1.06-.29,2.1-.83,3.01H6.66c-.54-.91-.83-1.95-.83-3.01v-2.88Zm2.06,21.47l6.43-5.51c.22-.18.39-.41.51-.67.12-.26.18-.54.18-.82v-.1c0-.28-.06-.56-.18-.82-.12-.26-.29-.49-.51-.67l-6.43-5.51c-.06-.05-.11-.1-.16-.15h15.86c-.06.05-.1.1-.16.15l-6.43,5.51c-.21.18-.39.41-.51.67-.12.26-.18.54-.18.82v.1c0,.28.06.56.18.82.12.26.29.49.51.67l6.43,5.51c1.17,1,1.9,2.43,2.03,3.96-1.26-.18-2.49-.57-3.63-1.13-1.91-.95-4.03-1.42-6.17-1.37-2.14-.05-4.25.42-6.17,1.37-1.14.57-2.37.95-3.63,1.13.13-1.54.86-2.96,2.03-3.96Zm18.25,11.29H5.18c-.35,0-.68-.14-.93-.38s-.38-.58-.38-.93.14-.68.38-.93.58-.38.93-.38h20.97c.35,0,.68.14.93.38s.38.58.38.93-.14.68-.38.93-.58.38-.93.38Z"/>
  <path class="cls-1" d="m16.32,25.38h-1.31v1.31h1.31v-1.31Z"/>
  <path class="cls-1" d="m16.32,28h-1.31v1.31h1.31v-1.31Z"/>
  <path class="cls-1" d="m16.32,30.62h-1.31v1.31h1.31v-1.31Z"/>
</svg>