<?xml version="1.0" encoding="UTF-8"?>
<svg id="Layer_1" data-name="Layer 1" xmlns="http://www.w3.org/2000/svg" viewBox="0 0 180 180">
  <defs>
    <style>
      .cls-1 {
        fill: #fff;
      }

      .cls-2 {
        fill: #ffc907;
      }

      .cls-3 {
        fill: #fedc00;
      }
    </style>
  </defs>
  <path class="cls-2" d="m136.96,90.01c0,25.93-21.02,46.96-46.96,46.96s-46.96-21.02-46.96-46.96,21.03-46.96,46.96-46.96,46.96,21.02,46.96,46.96Z"/>
  <g>
    <path class="cls-2" d="m129.7,123.38c2.33-2.23,7.21-10.09,9-15.57,4.87,4.41,10.67,11.5,14.69,18.89-8.37.2-17.48-1.29-23.69-3.32Z"/>
    <path class="cls-2" d="m107.68,138.77c3.71-1.44,3.15-1.14,8.22-3.79,4.3-2.86,1.2-.41,7.43-5.19,3.72,12.12,3.26,23.72,3.26,23.72,0,0-10.38-5.48-18.9-14.74Z"/>
    <path class="cls-2" d="m80.93,141.12c11.41,1.38,12.01.49,15.23.43,1.68-.23,2.79-.46,2.79-.46-1.71,7.83-5.49,16.46-9.04,22.17-4.19-6.96-7.3-14.79-8.98-22.14Z"/>
    <path class="cls-2" d="m56.63,129.71c2.23,2.32,10.1,7.21,15.57,9-4.61,5.11-11.7,10.78-18.89,14.69-.2-8.49,1.34-17.6,3.32-23.69Z"/>
    <path class="cls-2" d="m41.24,107.68c1.44,3.71,1.13,3.15,3.79,8.22,2.86,4.3.41,1.2,5.19,7.43-12.11,3.72-23.72,3.26-23.72,3.26,0,0,5.47-10.38,14.74-18.9Z"/>
    <path class="cls-2" d="m38.88,80.94c-.8,6.58-.64,4.09-.74,9.03-.15,2.26.28,4.51.32,6.21.23,1.68.46,2.78.46,2.78-7.78-1.69-16.39-5.45-22.17-9.04,6.93-4.17,14.82-7.3,22.13-8.98Z"/>
    <path class="cls-2" d="m50.3,56.63s-.82.79-1.76,2.21c-2.73,3.79-5.55,8.19-7.25,13.36-5.11-4.62-10.77-11.7-14.68-18.9,8.37-.2,17.38,1.27,23.69,3.32Z"/>
    <path class="cls-2" d="m72.33,41.25c-8.38,3.25-11.76,5.99-15.64,8.98-3.72-12.12-3.26-23.72-3.26-23.72,0,0,10.42,5.51,18.9,14.74Z"/>
    <path class="cls-2" d="m99.07,38.89c-11.42-1.38-12.01-.49-15.23-.42-1.68.23-2.79.46-2.79.46,1.65-7.57,5.27-16.11,9.04-22.17,3.78,6.28,7.15,14.17,8.98,22.13Z"/>
    <path class="cls-2" d="m123.37,50.3c-2.2-2.3-10.05-7.2-15.57-9,4.41-4.87,11.5-10.67,18.89-14.69.2,8.49-1.34,17.61-3.32,23.69Z"/>
    <path class="cls-2" d="m138.76,72.33c-1.44-3.7-1.13-3.15-3.79-8.22-2.86-4.3-.41-1.2-5.19-7.43,12.12-3.71,23.72-3.26,23.72-3.26,0,0-5.5,10.41-14.74,18.9Z"/>
    <path class="cls-2" d="m141.12,99.07c.79-6.58.64-4.09.74-9.03.14-2.27-.28-4.51-.32-6.21-.23-1.68-.46-2.79-.47-2.79,7.83,1.71,16.47,5.5,22.18,9.04-6.28,3.78-14.17,7.15-22.13,8.98Z"/>
  </g>
  <path class="cls-2" d="m136.95,89.99c0,25.95-21,46.96-46.96,46.96h-.07c-25.89-.03-46.89-21.04-46.89-46.96s21-46.93,46.89-46.96h.07c25.95,0,46.96,21.04,46.96,46.96Z"/>
  <g>
    <path class="cls-2" d="m153.38,126.68c-8.36.22-17.47-1.28-23.67-3.32,2.32-2.22,7.2-10.08,8.98-15.56,4.88,4.41,10.68,11.49,14.68,18.87Z"/>
    <path class="cls-2" d="m126.59,153.51s-10.39-5.48-18.91-14.75c3.69-1.44,3.16-1.13,8.2-3.79,4.32-2.85,1.22-.41,7.45-5.2,3.69,12.12,3.25,23.73,3.25,23.73Z"/>
    <path class="cls-2" d="m98.94,141.09c-1.69,7.79-5.44,16.4-9.02,22.1,0,.03-.03.03-.03.06-4.16-6.95-7.29-14.77-8.96-22.13,4.29.5,7.04.72,8.99.75,3.22.1,4.23-.28,6.23-.31,1.69-.22,2.79-.47,2.79-.47Z"/>
    <path class="cls-2" d="m56.63,129.71c2.23,2.32,10.1,7.21,15.57,9-4.61,5.11-11.7,10.78-18.89,14.69-.2-8.49,1.34-17.6,3.32-23.69Z"/>
    <path class="cls-2" d="m41.24,107.68c1.44,3.71,1.13,3.15,3.79,8.22,2.86,4.3.41,1.2,5.19,7.43-12.11,3.72-23.72,3.26-23.72,3.26,0,0,5.47-10.38,14.74-18.9Z"/>
    <path class="cls-2" d="m38.88,80.94c-.8,6.58-.64,4.09-.74,9.03-.15,2.26.28,4.51.32,6.21.23,1.68.46,2.78.46,2.78-7.78-1.69-16.39-5.45-22.17-9.04,6.93-4.17,14.82-7.3,22.13-8.98Z"/>
    <path class="cls-2" d="m50.3,56.63s-.82.79-1.76,2.21c-2.73,3.79-5.55,8.19-7.25,13.36-5.11-4.62-10.77-11.7-14.68-18.9,8.37-.2,17.38,1.27,23.69,3.32Z"/>
    <path class="cls-2" d="m72.33,41.25c-8.38,3.25-11.76,5.99-15.64,8.98-3.72-12.12-3.26-23.72-3.26-23.72,0,0,10.42,5.51,18.9,14.74Z"/>
    <path class="cls-2" d="m99.07,38.87c-4.38-.53-7.2-.72-9.14-.75-3.13-.06-4.13.31-6.1.35-1.66.22-2.79.47-2.79.47,1.63-7.48,5.2-15.9,8.89-21.95.07-.09.1-.16.16-.25,3.79,6.29,7.17,14.18,8.99,22.13Z"/>
    <path class="cls-2" d="m123.36,50.3c-2.19-2.29-10.05-7.2-15.56-9.01,4.42-4.86,11.49-10.65,18.88-14.69.22,8.49-1.32,17.63-3.32,23.7Z"/>
    <path class="cls-2" d="m153.51,53.43s-5.51,10.4-14.74,18.91c-1.44-3.72-1.13-3.16-3.79-8.23-2.88-4.29-.41-1.19-5.2-7.42,12.11-3.72,23.73-3.26,23.73-3.26Z"/>
    <path class="cls-2" d="m141.86,90.06c.13-2.28-.28-4.51-.31-6.23-.25-1.66-.47-2.79-.47-2.79,7.83,1.72,16.47,5.51,22.16,9.05-6.26,3.79-14.15,7.17-22.13,8.99.81-6.58.62-4.1.75-9.02Z"/>
  </g>
  <path class="cls-3" d="m99.07,38.87c-4.38-.53-7.2-.72-9.14-.75v-21.13c.07-.09.1-.16.16-.25,3.79,6.29,7.17,14.18,8.99,22.13Z"/>
  <path class="cls-3" d="m96.16,141.55c1.69-.22,2.79-.47,2.79-.47-1.69,7.79-5.44,16.4-9.02,22.1v-21.32c3.22.1,4.23-.28,6.23-.31Z"/>
  <path class="cls-3" d="m89.99,136.95h-.07V43.04h.07c25.95,0,46.96,21.04,46.96,46.96s-21,46.96-46.96,46.96Z"/>
  <path class="cls-3" d="m123.33,129.78c3.69,12.12,3.25,23.73,3.25,23.73,0,0-10.39-5.48-18.91-14.75,3.69-1.44,3.16-1.13,8.2-3.79,4.32-2.85,1.22-.41,7.45-5.2Z"/>
  <path class="cls-3" d="m123.36,50.3c-2.19-2.29-10.05-7.2-15.56-9.01,4.42-4.86,11.49-10.65,18.88-14.69.22,8.49-1.32,17.63-3.32,23.7Z"/>
  <path class="cls-3" d="m153.38,126.68c-8.36.22-17.47-1.28-23.67-3.32,2.32-2.22,7.2-10.08,8.98-15.56,4.88,4.41,10.68,11.49,14.68,18.87Z"/>
  <path class="cls-3" d="m134.98,64.11c-2.88-4.29-.41-1.19-5.2-7.42,12.11-3.72,23.73-3.26,23.73-3.26,0,0-5.51,10.4-14.74,18.91-1.44-3.72-1.13-3.16-3.79-8.23Z"/>
  <path class="cls-3" d="m141.86,90.06c.13-2.28-.28-4.51-.31-6.23-.25-1.66-.47-2.79-.47-2.79,7.83,1.72,16.47,5.51,22.16,9.05-6.26,3.79-14.15,7.17-22.13,8.99.81-6.58.62-4.1.75-9.02Z"/>
  <path class="cls-1" d="m131.56,89.99h-4.88c0-20.23-16.46-36.69-36.69-36.69l-.05-4.88h.05c22.92,0,41.57,18.65,41.57,41.57Z"/>
  <path class="cls-2" d="m117.13,89.99c0,14.99-12.14,27.14-27.14,27.14h-.07c-14.96-.06-27.08-12.18-27.08-27.14s12.11-27.08,27.08-27.14h.07c14.99,0,27.14,12.17,27.14,27.14Z"/>
  <path class="cls-3" d="m89.93,62.85v54.28c-14.96-.06-27.08-12.18-27.08-27.14s12.11-27.08,27.08-27.14Z"/>
</svg>