<?xml version="1.0" encoding="UTF-8"?>
<svg id="Layer_1" data-name="Layer 1" xmlns="http://www.w3.org/2000/svg" viewBox="0 0 180 180">
  <defs>
    <style>
      .cls-1 {
        fill: #ffc907;
      }
    </style>
  </defs>
  <path class="cls-1" d="m120.94,139.92c7.86-4.61,14.18-10.82,18.9-17.93-21.41,1.64-42.9-8.67-54.49-28.44-11.59-19.77-10.08-43.55,1.8-61.44-8.51.65-17.02,3.13-24.88,7.73-27.63,16.2-36.9,51.73-20.71,79.37,16.2,27.63,51.73,36.9,79.37,20.71Z"/>
  <path class="cls-1" d="m110.81,36.61c4.05,6.91,1.73,15.79-5.18,19.84,6.91-4.05,15.79-1.73,19.84,5.18-4.05-6.91-1.73-15.79,5.18-19.84-6.91,4.05-15.79,1.73-19.84-5.18Z"/>
  <path class="cls-1" d="m96.79,70.04c4.05,6.91,1.73,15.79-5.18,19.84,6.91-4.05,15.79-1.73,19.84,5.18-4.05-6.91-1.73-15.79,5.18-19.84-6.91,4.05-15.79,1.73-19.84-5.18Z"/>
  <path class="cls-1" d="m141.22,102.82c-4.05-6.91-1.73-15.79,5.18-19.84-6.91,4.05-15.79,1.73-19.84-5.18,4.05,6.91,1.73,15.79-5.18,19.84,6.91-4.05,15.79-1.73,19.84,5.18Z"/>
</svg>