<?xml version="1.0" encoding="UTF-8"?>
<svg id="Layer_1" data-name="Layer 1" xmlns="http://www.w3.org/2000/svg" viewBox="0 0 180 180">
  <defs>
    <style>
      .cls-1 {
        fill: #fff;
      }

      .cls-2 {
        fill: #ffc907;
      }

      .cls-3 {
        fill: #fedc00;
      }

      .cls-4 {
        fill: #4dbce3;
        stroke: #080709;
        stroke-miterlimit: 10;
      }
    </style>
  </defs>
  <g>
    <path class="cls-2" d="m80.76,79.64c0,15.96-12.94,28.9-28.9,28.9s-28.9-12.94-28.9-28.9,12.94-28.9,28.9-28.9,28.9,12.94,28.9,28.9Z"/>
    <g>
      <path class="cls-2" d="m76.3,100.18c1.43-1.37,4.44-6.21,5.54-9.58,3,2.71,6.57,7.08,9.04,11.63-5.15.12-10.75-.8-14.58-2.05Z"/>
      <path class="cls-2" d="m62.74,109.65c2.28-.88,1.94-.7,5.06-2.34,2.64-1.76.74-.25,4.57-3.19,2.29,7.45,2.01,14.6,2.01,14.6,0,0-6.39-3.37-11.63-9.08Z"/>
      <path class="cls-2" d="m46.28,111.1c7.03.84,7.4.3,9.37.26,1.04-.14,1.72-.29,1.72-.29-1.05,4.82-3.38,10.13-5.57,13.65-2.57-4.29-4.49-9.1-5.53-13.62Z"/>
      <path class="cls-2" d="m31.32,104.08c1.37,1.43,6.22,4.44,9.58,5.54-2.84,3.14-7.2,6.63-11.63,9.04-.12-5.22.83-10.83,2.05-14.58Z"/>
      <path class="cls-2" d="m21.85,90.52c.89,2.28.7,1.94,2.34,5.05,1.76,2.65.25.74,3.19,4.57-7.45,2.29-14.6,2.01-14.6,2.01,0,0,3.37-6.39,9.07-11.63Z"/>
      <path class="cls-2" d="m20.4,74.06c-.49,4.05-.39,2.52-.46,5.56-.09,1.39.18,2.78.2,3.82.14,1.03.29,1.71.29,1.71-4.79-1.04-10.09-3.35-13.65-5.56,4.27-2.57,9.12-4.49,13.62-5.53Z"/>
      <path class="cls-2" d="m27.42,59.1s-.51.49-1.08,1.36c-1.68,2.33-3.42,5.04-4.46,8.22-3.15-2.84-6.63-7.19-9.04-11.62,5.15-.13,10.7.78,14.58,2.04Z"/>
      <path class="cls-2" d="m40.98,49.63c-5.16,2-7.24,3.69-9.63,5.53-2.29-7.46-2.01-14.6-2.01-14.6,0,0,6.41,3.39,11.63,9.07Z"/>
      <path class="cls-2" d="m57.44,48.18c-7.03-.85-7.4-.3-9.38-.26-1.03.14-1.71.28-1.71.28,1.02-4.66,3.25-9.91,5.56-13.65,2.32,3.86,4.4,8.72,5.53,13.62Z"/>
      <path class="cls-2" d="m72.4,55.21c-1.36-1.42-6.19-4.43-9.58-5.54,2.71-3,7.08-6.57,11.63-9.04.12,5.23-.82,10.83-2.04,14.58Z"/>
      <path class="cls-2" d="m81.87,68.76c-.89-2.28-.7-1.94-2.33-5.06-1.76-2.65-.25-.74-3.19-4.57,7.46-2.29,14.6-2.01,14.6-2.01,0,0-3.38,6.4-9.07,11.63Z"/>
      <path class="cls-2" d="m83.32,85.22c.49-4.05.39-2.52.46-5.56.09-1.39-.17-2.77-.19-3.82-.14-1.03-.29-1.72-.29-1.72,4.82,1.06,10.14,3.39,13.65,5.57-3.87,2.33-8.72,4.4-13.63,5.53Z"/>
    </g>
    <path class="cls-2" d="m80.75,79.63c0,15.97-12.93,28.9-28.9,28.9h-.04c-15.93-.02-28.86-12.95-28.86-28.9s12.93-28.88,28.86-28.9h.04c15.97,0,28.9,12.94,28.9,28.9Z"/>
    <g>
      <path class="cls-2" d="m90.87,102.22c-5.15.14-10.75-.79-14.57-2.04,1.43-1.37,4.43-6.2,5.53-9.57,3.01,2.72,6.57,7.07,9.04,11.62Z"/>
      <path class="cls-2" d="m74.38,118.73s-6.4-3.37-11.63-9.08c2.27-.89,1.94-.69,5.04-2.33,2.66-1.75.75-.25,4.59-3.2,2.27,7.45,2,14.6,2,14.6Z"/>
      <path class="cls-2" d="m57.37,111.08c-1.04,4.8-3.35,10.1-5.55,13.6,0,.02-.02.02-.02.04-2.56-4.27-4.49-9.09-5.52-13.62,2.65.31,4.33.44,5.53.46,1.99.06,2.6-.17,3.83-.19,1.04-.13,1.72-.29,1.72-.29Z"/>
      <path class="cls-2" d="m31.32,104.08c1.37,1.43,6.22,4.44,9.58,5.54-2.84,3.14-7.2,6.63-11.63,9.04-.12-5.22.83-10.83,2.05-14.58Z"/>
      <path class="cls-2" d="m21.85,90.52c.89,2.28.7,1.94,2.34,5.05,1.76,2.65.25.74,3.19,4.57-7.45,2.29-14.6,2.01-14.6,2.01,0,0,3.37-6.39,9.07-11.63Z"/>
      <path class="cls-2" d="m20.4,74.06c-.49,4.05-.39,2.52-.46,5.56-.09,1.39.18,2.78.2,3.82.14,1.03.29,1.71.29,1.71-4.79-1.04-10.09-3.35-13.65-5.56,4.27-2.57,9.12-4.49,13.62-5.53Z"/>
      <path class="cls-2" d="m27.42,59.1s-.51.49-1.08,1.36c-1.68,2.33-3.42,5.04-4.46,8.22-3.15-2.84-6.63-7.19-9.04-11.62,5.15-.13,10.7.78,14.58,2.04Z"/>
      <path class="cls-2" d="m40.98,49.63c-5.16,2-7.24,3.69-9.63,5.53-2.29-7.46-2.01-14.6-2.01-14.6,0,0,6.41,3.39,11.63,9.07Z"/>
      <path class="cls-2" d="m57.44,48.17c-2.7-.32-4.43-.44-5.63-.46-1.93-.04-2.54.19-3.76.21-1.02.14-1.71.29-1.71.29,1-4.61,3.2-9.79,5.47-13.51.04-.06.05-.09.1-.15,2.33,3.87,4.41,8.72,5.53,13.62Z"/>
      <path class="cls-2" d="m72.39,55.2c-1.35-1.4-6.18-4.43-9.57-5.55,2.72-2.99,7.07-6.55,11.61-9.03.14,5.22-.81,10.84-2.04,14.58Z"/>
      <path class="cls-2" d="m90.94,57.13s-3.39,6.4-9.07,11.64c-.89-2.29-.7-1.95-2.33-5.07-1.77-2.64-.25-.73-3.2-4.57,7.46-2.29,14.6-2,14.6-2Z"/>
      <path class="cls-2" d="m83.78,79.67c.08-1.41-.18-2.78-.19-3.83-.15-1.02-.29-1.71-.29-1.71,4.82,1.06,10.13,3.39,13.64,5.57-3.85,2.33-8.71,4.41-13.62,5.53.5-4.04.39-2.52.46-5.55Z"/>
    </g>
    <path class="cls-3" d="m57.44,48.17c-2.7-.32-4.43-.44-5.63-.46v-13c.04-.06.05-.09.1-.15,2.33,3.87,4.41,8.72,5.53,13.62Z"/>
    <path class="cls-3" d="m55.65,111.36c1.04-.13,1.72-.29,1.72-.29-1.04,4.8-3.35,10.1-5.55,13.6v-13.12c1.99.06,2.6-.17,3.83-.19Z"/>
    <path class="cls-3" d="m51.85,108.53h-.04v-57.79h.04c15.97,0,28.9,12.94,28.9,28.9s-12.93,28.9-28.9,28.9Z"/>
    <path class="cls-3" d="m72.38,104.12c2.27,7.45,2,14.6,2,14.6,0,0-6.4-3.37-11.63-9.08,2.27-.89,1.94-.69,5.04-2.33,2.66-1.75.75-.25,4.59-3.2Z"/>
    <path class="cls-3" d="m72.39,55.2c-1.35-1.4-6.18-4.43-9.57-5.55,2.72-2.99,7.07-6.55,11.61-9.03.14,5.22-.81,10.84-2.04,14.58Z"/>
    <path class="cls-3" d="m90.87,102.22c-5.15.14-10.75-.79-14.57-2.04,1.43-1.37,4.43-6.2,5.53-9.57,3.01,2.72,6.57,7.07,9.04,11.62Z"/>
    <path class="cls-3" d="m79.54,63.7c-1.77-2.64-.25-.73-3.2-4.57,7.46-2.29,14.6-2,14.6-2,0,0-3.39,6.4-9.07,11.64-.89-2.29-.7-1.95-2.33-5.07Z"/>
    <path class="cls-3" d="m83.78,79.67c.08-1.41-.18-2.78-.19-3.83-.15-1.02-.29-1.71-.29-1.71,4.82,1.06,10.13,3.39,13.64,5.57-3.85,2.33-8.71,4.41-13.62,5.53.5-4.04.39-2.52.46-5.55Z"/>
    <path class="cls-1" d="m77.58,79.63h-3.28c0-12.38-10.07-22.44-22.44-22.44l-.03-3.28h.03c14.19,0,25.72,11.54,25.72,25.72Z"/>
  </g>
  <path class="cls-4" d="m173.22,120.24c0,6.96-2.81,13.27-7.39,17.82-4.57,4.55-10.86,7.38-17.83,7.38H42.56c-12.09,0-21.91-9.82-21.91-21.91s9.82-21.88,21.91-21.88c3.88,0,7.52,1,10.69,2.79-.51-1.43-.82-2.96-.82-4.58,0-7.38,5.98-13.34,13.36-13.34,4.35,0,8.23,2.1,10.66,5.36,1.16-16.71,14.48-30.07,31.19-31.19.76-.06,1.52-.09,2.29-.09,18.56,0,33.62,15.05,33.62,33.61,0,.42-.05.82-.07,1.25,1.47-.27,2.99-.43,4.53-.43,13.92,0,25.21,11.29,25.21,25.19Z"/>
</svg>