<?xml version="1.0" encoding="UTF-8"?>
<svg id="Layer_1" data-name="Layer 1" xmlns="http://www.w3.org/2000/svg" viewBox="0 0 180 180">
  <defs>
    <style>
      .cls-1 {
        fill: #ffc907;
      }

      .cls-2 {
        fill: #4dbce3;
        stroke: #080709;
        stroke-miterlimit: 10;
      }
    </style>
  </defs>
  <g>
    <path class="cls-1" d="m63.21,100.28c4.76-2.79,8.58-6.54,11.43-10.85-12.95.99-25.95-5.24-32.96-17.2-7.01-11.96-6.1-26.35,1.09-37.16-5.15.39-10.29,1.89-15.05,4.68-16.71,9.8-22.32,31.29-12.52,48.01,9.8,16.71,31.29,22.32,48.01,12.52Z"/>
    <path class="cls-1" d="m57.08,37.79c2.45,4.18,1.05,9.55-3.13,12,4.18-2.45,9.55-1.05,12,3.13-2.45-4.18-1.05-9.55,3.13-12-4.18,2.45-9.55,1.05-12-3.13Z"/>
    <path class="cls-1" d="m48.6,58.01c2.45,4.18,1.05,9.55-3.13,12,4.18-2.45,9.55-1.05,12,3.13-2.45-4.18-1.05-9.55,3.13-12-4.18,2.45-9.55,1.05-12-3.13Z"/>
    <path class="cls-1" d="m75.47,77.84c-2.45-4.18-1.05-9.55,3.13-12-4.18,2.45-9.55,1.05-12-3.13,2.45,4.18,1.05,9.55-3.13,12,4.18-2.45,9.55-1.05,12,3.13Z"/>
  </g>
  <path class="cls-2" d="m169.62,119.93c0,6.9-2.79,13.16-7.33,17.68-4.53,4.51-10.77,7.32-17.68,7.32H40.04c-11.99,0-21.72-9.74-21.72-21.72s9.74-21.7,21.72-21.7c3.85,0,7.46.99,10.6,2.77-.51-1.41-.82-2.94-.82-4.54,0-7.32,5.93-13.23,13.25-13.23,4.31,0,8.16,2.08,10.58,5.31,1.15-16.57,14.36-29.82,30.93-30.93.75-.06,1.5-.09,2.27-.09,18.41,0,33.34,14.93,33.34,33.34,0,.42-.05.82-.07,1.24,1.46-.27,2.96-.42,4.49-.42,13.81,0,25,11.2,25,24.98Z"/>
</svg>