<?xml version="1.0" encoding="UTF-8"?>
<svg id="Layer_1" data-name="Layer 1" xmlns="http://www.w3.org/2000/svg" viewBox="0 0 180 180">
  <defs>
    <style>
      .cls-1 {
        fill: #4dbce3;
        stroke: #080709;
        stroke-miterlimit: 10;
      }
    </style>
  </defs>
  <path class="cls-1" d="m170.9,108.25c0,7.38-2.98,14.07-7.83,18.9-4.85,4.82-11.52,7.83-18.9,7.83H32.34c-12.82,0-23.23-10.41-23.23-23.23s10.41-23.2,23.23-23.2c4.12,0,7.97,1.07,11.33,2.96-.54-1.51-.88-3.15-.88-4.85,0-7.83,6.34-14.14,14.17-14.14,4.61,0,8.73,2.22,11.31,5.67,1.23-17.72,15.36-31.89,33.07-33.07.81-.07,1.61-.1,2.44-.1,19.68,0,35.65,15.97,35.65,35.65,0,.45-.04.87-.07,1.32,1.56-.28,3.17-.45,4.8-.45,14.76,0,26.74,11.96,26.74,26.71Z"/>
</svg>