<?xml version="1.0" encoding="UTF-8"?>
<svg id="Layer_1" data-name="Layer 1" xmlns="http://www.w3.org/2000/svg" viewBox="0 0 180 180">
  <defs>
    <style>
      .cls-1 {
        fill: #4dbce3;
      }

      .cls-1, .cls-2 {
        stroke: #080709;
        stroke-miterlimit: 10;
      }

      .cls-2 {
        fill: #44aecb;
      }
    </style>
  </defs>
  <path class="cls-2" d="m135.84,92.63c0,5.84-2.36,11.13-6.2,14.95-3.84,3.81-9.12,6.19-14.95,6.19H26.24c-10.14,0-18.38-8.23-18.38-18.38s8.23-18.35,18.38-18.35c3.26,0,6.31.84,8.97,2.34-.43-1.2-.7-2.49-.7-3.84,0-6.19,5.02-11.19,11.21-11.19,3.65,0,6.91,1.76,8.94,4.49.97-14.02,12.15-25.22,26.16-26.16.64-.06,1.27-.08,1.93-.08,15.57,0,28.2,12.63,28.2,28.2,0,.35-.04.69-.05,1.05,1.23-.22,2.51-.35,3.8-.35,11.68,0,21.15,9.46,21.15,21.13Z"/>
  <path class="cls-1" d="m172.14,116.25c0,5.84-2.36,11.13-6.2,14.95-3.84,3.81-9.12,6.19-14.95,6.19H62.53c-10.14,0-18.38-8.23-18.38-18.38s8.23-18.35,18.38-18.35c3.26,0,6.31.84,8.97,2.34-.43-1.2-.7-2.49-.7-3.84,0-6.19,5.02-11.19,11.21-11.19,3.65,0,6.91,1.76,8.94,4.49.97-14.02,12.15-25.22,26.16-26.16.64-.06,1.27-.08,1.93-.08,15.57,0,28.2,12.63,28.2,28.2,0,.35-.04.69-.05,1.05,1.23-.22,2.51-.35,3.8-.35,11.68,0,21.15,9.46,21.15,21.13Z"/>
</svg>