<?xml version="1.0" encoding="UTF-8"?>
<svg id="Layer_1" data-name="Layer 1" xmlns="http://www.w3.org/2000/svg" viewBox="0 0 180 180">
  <defs>
    <style>
      .cls-1 {
        fill: #f0efef;
      }

      .cls-2 {
        fill: #fff;
      }

      .cls-3 {
        fill: #4dbce3;
      }

      .cls-3, .cls-4 {
        stroke: #080709;
        stroke-miterlimit: 10;
      }

      .cls-4 {
        fill: #44aecb;
      }
    </style>
  </defs>
  <g>
    <path class="cls-4" d="m135.84,74.15c0,5.84-2.36,11.13-6.2,14.95-3.84,3.81-9.12,6.19-14.95,6.19H26.24c-10.14,0-18.38-8.23-18.38-18.38s8.23-18.35,18.38-18.35c3.26,0,6.31.84,8.97,2.34-.43-1.2-.7-2.49-.7-3.84,0-6.19,5.02-11.19,11.21-11.19,3.65,0,6.91,1.76,8.94,4.49.97-14.02,12.15-25.22,26.16-26.16.64-.06,1.27-.08,1.93-.08,15.57,0,28.2,12.63,28.2,28.2,0,.35-.04.69-.05,1.05,1.23-.22,2.51-.35,3.8-.35,11.68,0,21.15,9.46,21.15,21.13Z"/>
    <path class="cls-3" d="m172.14,97.77c0,5.84-2.36,11.13-6.2,14.95-3.84,3.81-9.12,6.19-14.95,6.19H62.53c-10.14,0-18.38-8.23-18.38-18.38s8.23-18.35,18.38-18.35c3.26,0,6.31.84,8.97,2.34-.43-1.2-.7-2.49-.7-3.84,0-6.19,5.02-11.19,11.21-11.19,3.65,0,6.91,1.76,8.94,4.49.97-14.02,12.15-25.22,26.16-26.16.64-.06,1.27-.08,1.93-.08,15.57,0,28.2,12.63,28.2,28.2,0,.35-.04.69-.05,1.05,1.23-.22,2.51-.35,3.8-.35,11.68,0,21.15,9.46,21.15,21.13Z"/>
  </g>
  <g>
    <path class="cls-1" d="m150.59,138.84c0,9.41-7.64,17.03-17.05,17.03s-17.05-7.62-17.05-17.03,17.05-33.53,17.05-33.53c0,0,17.05,24.1,17.05,33.53Z"/>
    <path class="cls-2" d="m150.59,138.84c0,9.41-7.64,17.03-17.05,17.03v-50.55s17.05,24.1,17.05,33.53Z"/>
    <path class="cls-1" d="m106.08,121.95c0,4.65-3.77,8.41-8.42,8.41s-8.43-3.76-8.43-8.41,8.43-16.57,8.43-16.57c0,0,8.42,11.92,8.42,16.57Z"/>
    <path class="cls-2" d="m106.08,121.95c0,4.65-3.77,8.41-8.42,8.41v-24.98s8.42,11.92,8.42,16.57Z"/>
  </g>
</svg>