<?xml version="1.0" encoding="UTF-8"?>
<svg id="Layer_1" data-name="Layer 1" xmlns="http://www.w3.org/2000/svg" viewBox="0 0 180 180">
  <defs>
    <style>
      .cls-1 {
        fill: #f0efef;
      }

      .cls-2 {
        fill: #fff;
      }

      .cls-3 {
        fill: #ffc907;
      }

      .cls-4 {
        fill: #fedc00;
      }

      .cls-5 {
        fill: #4dbce3;
        stroke: #080709;
        stroke-miterlimit: 10;
      }
    </style>
  </defs>
  <g>
    <path class="cls-3" d="m81,64.3c0,15.55-12.6,28.15-28.14,28.15s-28.15-12.6-28.15-28.15,12.6-28.14,28.15-28.14,28.14,12.6,28.14,28.14Z"/>
    <g>
      <path class="cls-3" d="m76.65,84.31c1.39-1.34,4.32-6.05,5.4-9.34,2.92,2.64,6.39,6.9,8.8,11.32-5.02.12-10.48-.78-14.2-1.99Z"/>
      <path class="cls-3" d="m63.45,93.53c2.22-.87,1.88-.68,4.92-2.27,2.58-1.72.72-.25,4.45-3.11,2.23,7.26,1.95,14.22,1.95,14.22,0,0-6.22-3.28-11.32-8.84Z"/>
      <path class="cls-3" d="m47.42,94.94c6.84.83,7.2.29,9.13.26,1-.14,1.67-.28,1.67-.28-1.02,4.69-3.29,9.87-5.42,13.3-2.51-4.18-4.37-8.87-5.38-13.27Z"/>
      <path class="cls-3" d="m32.85,88.1c1.33,1.39,6.05,4.32,9.33,5.39-2.77,3.07-7.01,6.46-11.32,8.8-.12-5.09.8-10.55,1.99-14.2Z"/>
      <path class="cls-3" d="m23.62,74.9c.86,2.21.68,1.89,2.27,4.92,1.71,2.57.24.72,3.11,4.45-7.26,2.22-14.22,1.95-14.22,1.95,0,0,3.28-6.22,8.84-11.32Z"/>
      <path class="cls-3" d="m22.21,58.86c-.48,3.95-.38,2.45-.45,5.42-.09,1.36.17,2.7.19,3.72.14,1.01.28,1.67.28,1.67-4.66-1.02-9.83-3.26-13.29-5.42,4.16-2.5,8.88-4.38,13.27-5.39Z"/>
      <path class="cls-3" d="m29.05,44.3s-.49.48-1.05,1.32c-1.64,2.28-3.33,4.91-4.34,8.01-3.06-2.77-6.46-7.01-8.8-11.33,5.01-.11,10.42.76,14.2,1.99Z"/>
      <path class="cls-3" d="m42.25,35.07c-5.02,1.95-7.05,3.6-9.37,5.38-2.23-7.26-1.95-14.22-1.95-14.22,0,0,6.24,3.31,11.33,8.84Z"/>
      <path class="cls-3" d="m58.29,33.66c-6.85-.82-7.2-.29-9.13-.25-1,.13-1.67.28-1.67.28.99-4.54,3.16-9.66,5.42-13.3,2.26,3.76,4.29,8.5,5.38,13.27Z"/>
      <path class="cls-3" d="m72.85,40.5c-1.32-1.38-6.03-4.32-9.33-5.4,2.64-2.92,6.89-6.4,11.32-8.81.12,5.09-.8,10.55-1.99,14.21Z"/>
      <path class="cls-3" d="m82.08,53.7c-.86-2.22-.68-1.89-2.27-4.92-1.71-2.58-.24-.72-3.11-4.45,7.27-2.23,14.22-1.95,14.22-1.95,0,0-3.3,6.23-8.84,11.32Z"/>
      <path class="cls-3" d="m83.49,69.74c.48-3.95.38-2.45.45-5.42.09-1.36-.17-2.69-.19-3.71-.13-1-.28-1.67-.28-1.67,4.69,1.02,9.87,3.29,13.29,5.42-3.76,2.27-8.49,4.29-13.27,5.39Z"/>
    </g>
    <path class="cls-3" d="m81,64.29c0,15.56-12.59,28.15-28.15,28.15h-.04c-15.52-.02-28.11-12.61-28.11-28.15s12.59-28.13,28.11-28.15h.04c15.55,0,28.15,12.61,28.15,28.15Z"/>
    <g>
      <path class="cls-3" d="m90.85,86.29c-5.01.13-10.47-.77-14.19-1.99,1.39-1.33,4.32-6.04,5.39-9.33,2.93,2.65,6.4,6.89,8.8,11.32Z"/>
      <path class="cls-3" d="m74.78,102.37s-6.23-3.28-11.33-8.84c2.21-.87,1.89-.67,4.91-2.27,2.59-1.71.73-.25,4.47-3.12,2.22,7.26,1.95,14.22,1.95,14.22Z"/>
      <path class="cls-3" d="m58.21,94.92c-1.01,4.68-3.26,9.83-5.4,13.25,0,.02-.02.02-.02.04-2.49-4.17-4.37-8.86-5.37-13.27,2.57.3,4.22.43,5.39.45,1.93.06,2.53-.17,3.73-.19,1.01-.13,1.67-.28,1.67-.28Z"/>
      <path class="cls-3" d="m32.85,88.1c1.33,1.39,6.05,4.32,9.33,5.39-2.77,3.07-7.01,6.46-11.32,8.8-.12-5.09.8-10.55,1.99-14.2Z"/>
      <path class="cls-3" d="m23.62,74.9c.86,2.21.68,1.89,2.27,4.92,1.71,2.57.24.72,3.11,4.45-7.26,2.22-14.22,1.95-14.22,1.95,0,0,3.28-6.22,8.84-11.32Z"/>
      <path class="cls-3" d="m22.21,58.86c-.48,3.95-.38,2.45-.45,5.42-.09,1.36.17,2.7.19,3.72.14,1.01.28,1.67.28,1.67-4.66-1.02-9.83-3.26-13.29-5.42,4.16-2.5,8.88-4.38,13.27-5.39Z"/>
      <path class="cls-3" d="m29.05,44.3s-.49.48-1.05,1.32c-1.64,2.28-3.33,4.91-4.34,8.01-3.06-2.77-6.46-7.01-8.8-11.33,5.01-.11,10.42.76,14.2,1.99Z"/>
      <path class="cls-3" d="m42.25,35.07c-5.02,1.95-7.05,3.6-9.37,5.38-2.23-7.26-1.95-14.22-1.95-14.22,0,0,6.24,3.31,11.33,8.84Z"/>
      <path class="cls-3" d="m58.29,33.65c-2.63-.32-4.32-.43-5.48-.45-1.88-.04-2.48.19-3.66.21-1,.13-1.67.28-1.67.28.98-4.48,3.12-9.53,5.33-13.16.04-.05.05-.09.09-.14,2.27,3.77,4.3,8.5,5.39,13.26Z"/>
      <path class="cls-3" d="m72.85,40.5c-1.31-1.38-6.02-4.32-9.33-5.41,2.65-2.91,6.89-6.38,11.32-8.8.13,5.09-.79,10.57-1.99,14.21Z"/>
      <path class="cls-3" d="m90.92,42.38s-3.31,6.23-8.84,11.33c-.86-2.24-.68-1.89-2.27-4.93-1.73-2.57-.24-.72-3.12-4.44,7.26-2.24,14.23-1.95,14.23-1.95Z"/>
      <path class="cls-3" d="m83.94,64.33c.08-1.37-.17-2.7-.19-3.73-.15-1-.28-1.67-.28-1.67,4.69,1.03,9.87,3.31,13.29,5.42-3.75,2.27-8.48,4.3-13.26,5.39.49-3.94.37-2.46.45-5.41Z"/>
    </g>
    <path class="cls-4" d="m58.29,33.65c-2.63-.32-4.32-.43-5.48-.45v-12.67c.04-.05.05-.09.09-.14,2.27,3.77,4.3,8.5,5.39,13.26Z"/>
    <path class="cls-4" d="m56.54,95.2c1.01-.13,1.67-.28,1.67-.28-1.01,4.68-3.26,9.83-5.4,13.25v-12.78c1.93.06,2.53-.17,3.73-.19Z"/>
    <path class="cls-4" d="m52.85,92.44h-.04v-56.3h.04c15.55,0,28.15,12.61,28.15,28.15s-12.59,28.15-28.15,28.15Z"/>
    <path class="cls-4" d="m72.83,88.15c2.22,7.26,1.95,14.22,1.95,14.22,0,0-6.23-3.28-11.33-8.84,2.21-.87,1.89-.67,4.91-2.27,2.59-1.71.73-.25,4.47-3.12Z"/>
    <path class="cls-4" d="m72.85,40.5c-1.31-1.38-6.02-4.32-9.33-5.41,2.65-2.91,6.89-6.38,11.32-8.8.13,5.09-.79,10.57-1.99,14.21Z"/>
    <path class="cls-4" d="m90.85,86.29c-5.01.13-10.47-.77-14.19-1.99,1.39-1.33,4.32-6.04,5.39-9.33,2.93,2.65,6.4,6.89,8.8,11.32Z"/>
    <path class="cls-4" d="m79.81,48.78c-1.73-2.57-.24-.72-3.12-4.44,7.26-2.24,14.23-1.95,14.23-1.95,0,0-3.31,6.23-8.84,11.33-.86-2.24-.68-1.89-2.27-4.93Z"/>
    <path class="cls-4" d="m83.94,64.33c.08-1.37-.17-2.7-.19-3.73-.15-1-.28-1.67-.28-1.67,4.69,1.03,9.87,3.31,13.29,5.42-3.75,2.27-8.48,4.3-13.26,5.39.49-3.94.37-2.46.45-5.41Z"/>
    <path class="cls-2" d="m77.9,64.29h-3.2c0-12.05-9.81-21.86-21.86-21.86l-.03-3.19h.03c13.81,0,25.05,11.24,25.05,25.05Z"/>
  </g>
  <path class="cls-5" d="m171.06,103.85c0,6.77-2.74,12.92-7.19,17.35-4.45,4.43-10.58,7.19-17.36,7.19H43.8c-11.78,0-21.34-9.56-21.34-21.34s9.56-21.32,21.34-21.32c3.78,0,7.32.98,10.41,2.72-.5-1.39-.81-2.89-.81-4.45,0-7.19,5.82-12.99,13.01-12.99,4.24,0,8.02,2.04,10.39,5.21,1.13-16.27,14.1-29.28,30.37-30.37.74-.07,1.48-.09,2.24-.09,18.08,0,32.74,14.67,32.74,32.75,0,.41-.04.81-.06,1.21,1.43-.26,2.91-.41,4.41-.41,13.56,0,24.56,10.99,24.56,24.53Z"/>
  <path class="cls-1" d="m138.07,144.19c0,8.52-6.92,15.43-15.45,15.43s-15.44-6.91-15.44-15.43,15.44-30.37,15.44-30.37c0,0,15.45,21.84,15.45,30.37Z"/>
  <path class="cls-2" d="m138.07,144.19c0,8.52-6.92,15.43-15.45,15.43v-45.8s15.45,21.84,15.45,30.37Z"/>
  <path class="cls-1" d="m97.75,128.89c0,4.21-3.42,7.62-7.64,7.62s-7.63-3.41-7.63-7.62,7.63-15.01,7.63-15.01c0,0,7.64,10.79,7.64,15.01Z"/>
  <path class="cls-2" d="m97.75,128.89c0,4.21-3.42,7.62-7.64,7.62v-22.63s7.64,10.79,7.64,15.01Z"/>
</svg>