<?xml version="1.0" encoding="UTF-8"?>
<svg id="Layer_1" data-name="Layer 1" xmlns="http://www.w3.org/2000/svg" viewBox="0 0 180 180">
  <defs>
    <style>
      .cls-1 {
        fill: #f0efef;
      }

      .cls-2 {
        fill: #fff;
      }

      .cls-3 {
        fill: #ffc907;
      }

      .cls-4 {
        fill: #4dbce3;
        stroke: #080709;
        stroke-miterlimit: 10;
      }
    </style>
  </defs>
  <g>
    <path class="cls-3" d="m63.32,86.28c4.93-2.89,8.89-6.78,11.85-11.24-13.42,1.02-26.89-5.43-34.15-17.83s-6.32-27.3,1.13-38.51c-5.34.4-10.67,1.96-15.59,4.85C9.23,33.7,3.41,55.98,13.57,73.3c10.15,17.32,32.43,23.13,49.75,12.98Z"/>
    <path class="cls-3" d="m56.96,21.52c2.54,4.33,1.09,9.9-3.24,12.44,4.33-2.54,9.9-1.09,12.44,3.24-2.54-4.33-1.09-9.9,3.24-12.44-4.33,2.54-9.9,1.09-12.44-3.24Z"/>
    <path class="cls-3" d="m48.18,42.47c2.54,4.33,1.09,9.9-3.24,12.44,4.33-2.54,9.9-1.09,12.44,3.24-2.54-4.33-1.09-9.9,3.24-12.44-4.33,2.54-9.9,1.09-12.44-3.24Z"/>
    <path class="cls-3" d="m76.03,63.02c-2.54-4.33-1.09-9.9,3.24-12.44-4.33,2.54-9.9,1.09-12.44-3.24,2.54,4.33,1.09,9.9-3.24,12.44,4.33-2.54,9.9-1.09,12.44,3.24Z"/>
  </g>
  <path class="cls-4" d="m171.43,104.46c0,6.9-2.8,13.17-7.33,17.69-4.54,4.51-10.79,7.33-17.7,7.33H41.71c-12,0-21.75-9.75-21.75-21.75s9.75-21.73,21.75-21.73c3.85,0,7.46,1,10.61,2.77-.51-1.42-.82-2.94-.82-4.54,0-7.33,5.93-13.24,13.26-13.24,4.32,0,8.18,2.08,10.59,5.31,1.15-16.59,14.38-29.85,30.96-30.96.76-.07,1.51-.09,2.28-.09,18.43,0,33.38,14.96,33.38,33.38,0,.42-.04.82-.06,1.24,1.46-.26,2.96-.41,4.49-.41,13.82,0,25.03,11.2,25.03,25.01Z"/>
  <path class="cls-1" d="m137.8,145.58c0,8.68-7.06,15.72-15.74,15.72s-15.74-7.04-15.74-15.72,15.74-30.96,15.74-30.96c0,0,15.74,22.26,15.74,30.96Z"/>
  <path class="cls-2" d="m137.8,145.58c0,8.68-7.06,15.72-15.74,15.72v-46.68s15.74,22.26,15.74,30.96Z"/>
  <path class="cls-1" d="m96.7,129.98c0,4.29-3.49,7.77-7.78,7.77s-7.78-3.47-7.78-7.77,7.78-15.3,7.78-15.3c0,0,7.78,11,7.78,15.3Z"/>
  <path class="cls-2" d="m96.7,129.98c0,4.29-3.49,7.77-7.78,7.77v-23.07s7.78,11,7.78,15.3Z"/>
</svg>