<?xml version="1.0" encoding="UTF-8"?>
<svg id="Layer_1" data-name="Layer 1" xmlns="http://www.w3.org/2000/svg" viewBox="0 0 180 180">
  <defs>
    <style>
      .cls-1 {
        fill: #e7b321;
      }

      .cls-2 {
        fill: #ffc907;
      }

      .cls-3 {
        fill: #4dbce3;
      }

      .cls-3, .cls-4 {
        stroke: #080709;
        stroke-miterlimit: 10;
      }

      .cls-4 {
        fill: #44aecb;
      }
    </style>
  </defs>
  <g>
    <path class="cls-2" d="m118.1,93.69l-7,17.48,8.74,1.52-10.26,19,11.02,1.52-6.46,21.66,21.28-28.5-11.4-.76,12.54-19-7.6-.38,6.46-12.54s-16.77-1.9-17.31,0Z"/>
    <path class="cls-1" d="m136.55,106.6l-7.6-.38,6.46-12.54s-9.33-1.06-14.3-.8c4.85.17,10.5.8,10.5.8l-6.46,12.54,7.6.38-12.54,19,11.4.76-14.95,20.02-2.53,8.47,21.28-28.5-11.4-.76,12.54-19Z"/>
  </g>
  <g>
    <path class="cls-2" d="m89.13,83.25l-7,17.48,8.74,1.52-10.26,19,11.02,1.52-6.46,21.66,21.28-28.5-11.4-.76,12.54-19-7.6-.38,6.46-12.54s-16.77-1.9-17.31,0Z"/>
    <path class="cls-1" d="m107.59,96.17l-7.6-.38,6.46-12.54s-9.33-1.06-14.3-.8c4.85.17,10.5.8,10.5.8l-6.46,12.54,7.6.38-12.54,19,11.4.76-14.95,20.02-2.53,8.47,21.28-28.5-11.4-.76,12.54-19Z"/>
  </g>
  <g>
    <path class="cls-4" d="m131.99,70.96c0,5.35-2.16,10.2-5.67,13.7-3.52,3.49-8.35,5.67-13.7,5.67H31.6c-9.29,0-16.83-7.54-16.83-16.83s7.54-16.81,16.83-16.81c2.98,0,5.78.77,8.21,2.14-.39-1.1-.64-2.28-.64-3.52,0-5.67,4.6-10.25,10.27-10.25,3.34,0,6.32,1.61,8.19,4.11.89-12.84,11.13-23.1,23.96-23.96.58-.05,1.17-.07,1.77-.07,14.26,0,25.83,11.57,25.83,25.83,0,.32-.03.63-.05.96,1.13-.21,2.29-.32,3.48-.32,10.69,0,19.37,8.67,19.37,19.35Z"/>
    <path class="cls-3" d="m165.23,92.59c0,5.35-2.16,10.2-5.67,13.7-3.52,3.49-8.35,5.67-13.7,5.67h-81.02c-9.29,0-16.83-7.54-16.83-16.83s7.54-16.81,16.83-16.81c2.98,0,5.78.77,8.21,2.14-.39-1.1-.64-2.28-.64-3.52,0-5.67,4.6-10.25,10.27-10.25,3.34,0,6.32,1.61,8.19,4.11.89-12.84,11.13-23.1,23.96-23.96.58-.05,1.17-.07,1.77-.07,14.26,0,25.83,11.57,25.83,25.83,0,.32-.03.63-.05.96,1.13-.21,2.29-.32,3.48-.32,10.69,0,19.37,8.67,19.37,19.35Z"/>
  </g>
</svg>