<?xml version="1.0" encoding="UTF-8"?>
<svg id="Layer_1" data-name="Layer 1" xmlns="http://www.w3.org/2000/svg" viewBox="0 0 180 180">
  <defs>
    <style>
      .cls-1 {
        fill: #4dbce3;
        stroke: #080709;
        stroke-miterlimit: 10;
      }
    </style>
  </defs>
  <path class="cls-1" d="m145.81,103.23c-.55-2.69-3.17-4.43-5.86-3.88l-19.82,4.02-20.9-13.37,20.9-13.37,19.82,4.02c.33.07.67.1.99.1,2.32,0,4.39-1.63,4.87-3.99.55-2.69-1.19-5.31-3.88-5.86l-9.75-1.98,10.18-6.51c2.31-1.48,2.99-4.55,1.51-6.87-1.48-2.31-4.55-2.99-6.87-1.51l-10.18,6.51,2.29-9.68c.63-2.67-1.02-5.35-3.69-5.98-2.67-.63-5.35,1.02-5.98,3.69l-4.67,19.67-19.8,12.66v-23.5l14.06-14.53c1.91-1.97,1.86-5.12-.12-7.03-1.97-1.91-5.12-1.86-7.03.12l-6.92,7.15v-12.08c0-2.75-2.23-4.97-4.97-4.97s-4.97,2.23-4.97,4.97v12.08l-6.92-7.15c-1.91-1.97-5.06-2.03-7.03-.12-1.97,1.91-2.02,5.06-.12,7.03l14.06,14.53v23.5l-19.8-12.66-4.67-19.67c-.63-2.67-3.31-4.32-5.98-3.69-2.67.63-4.32,3.31-3.69,5.98l2.29,9.68-10.18-6.51c-2.31-1.48-5.39-.8-6.87,1.51-1.48,2.31-.8,5.39,1.51,6.87l10.18,6.51-9.75,1.98c-2.69.55-4.43,3.17-3.88,5.86.48,2.36,2.55,3.99,4.87,3.99.33,0,.66-.03.99-.1l19.82-4.02,20.9,13.37-20.9,13.37-19.82-4.02c-2.69-.55-5.31,1.19-5.86,3.88-.55,2.69,1.19,5.31,3.88,5.86l9.75,1.98-10.18,6.51c-2.31,1.48-2.99,4.55-1.51,6.87.95,1.48,2.55,2.29,4.19,2.29.92,0,1.84-.25,2.67-.78l10.18-6.51-2.29,9.68c-.63,2.67,1.02,5.35,3.69,5.98.39.09.77.14,1.15.14,2.25,0,4.29-1.54,4.83-3.83l4.67-19.67,19.8-12.66v23.5l-14.06,14.53c-1.91,1.97-1.86,5.12.12,7.03,1.97,1.91,5.12,1.86,7.03-.12l6.92-7.15v12.08c0,2.75,2.23,4.97,4.97,4.97s4.97-2.23,4.97-4.97v-12.08l6.92,7.15c.98,1.01,2.27,1.51,3.57,1.51s2.49-.46,3.46-1.4c1.97-1.91,2.03-5.06.12-7.03l-14.06-14.53v-23.5l19.8,12.66,4.67,19.67c.54,2.29,2.58,3.83,4.83,3.83.38,0,.77-.04,1.15-.14,2.67-.63,4.32-3.31,3.69-5.98l-2.29-9.68,10.18,6.51c.83.53,1.76.78,2.67.78,1.64,0,3.24-.81,4.19-2.29,1.48-2.31.8-5.39-1.51-6.87l-10.18-6.51,9.75-1.98c2.69-.55,4.43-3.17,3.88-5.86Z"/>
</svg>