<?xml version="1.0" encoding="UTF-8"?>
<svg id="Layer_1" data-name="Layer 1" xmlns="http://www.w3.org/2000/svg" viewBox="0 0 180 180">
  <defs>
    <style>
      .cls-1 {
        fill: #4dbce3;
        stroke: #080709;
        stroke-miterlimit: 10;
      }
    </style>
  </defs>
  <g>
    <path class="cls-1" d="m152.97,95.47c-3.7,3.03-10.26,7.24-13.41,7.24-1.61,0-3.58-1.57-5.66-3.26-2.83-2.24-6.02-4.84-10.22-4.84s-7.63,2.6-10.54,4.92c-2.08,1.61-4.05,3.19-5.66,3.19s-3.5-1.53-5.47-3.15c-2.83-2.32-6.02-4.95-10.42-4.95s-7.59,2.63-10.42,4.95c-2.01,1.61-3.89,3.15-5.47,3.15-1.65,0-3.58-1.53-5.66-3.19-2.87-2.32-6.17-4.92-10.54-4.92s-7.39,2.56-10.22,4.84c-2.04,1.69-4.01,3.26-5.66,3.26-3.19,0-9.75-4.25-13.41-7.24-1.69-1.38-4.17-1.14-5.54.55-1.38,1.69-1.14,4.17.55,5.54,1.81,1.49,11.32,9,18.36,9,4.4,0,7.71-2.63,10.62-4.99,1.89-1.53,3.85-3.11,5.27-3.11,1.65,0,3.58,1.53,5.66,3.19,2.87,2.32,6.17,4.92,10.54,4.92s7.59-2.63,10.42-4.95c2.01-1.61,3.89-3.15,5.47-3.15s3.5,1.53,5.47,3.15c2.83,2.32,6.02,4.95,10.42,4.95s7.63-2.6,10.54-4.92c2.08-1.61,4.05-3.19,5.66-3.19,1.42,0,3.38,1.57,5.27,3.11,2.91,2.32,6.17,4.99,10.62,4.99,7.04,0,16.52-7.47,18.44-9,1.69-1.38,1.93-3.85.55-5.54-1.38-1.69-3.85-1.93-5.54-.55Z"/>
    <path class="cls-1" d="m152.97,119.54c-3.7,3.03-10.26,7.24-13.41,7.24-1.61,0-3.58-1.57-5.66-3.26-2.83-2.24-6.02-4.84-10.22-4.84s-7.63,2.6-10.54,4.92c-2.08,1.61-4.05,3.19-5.66,3.19s-3.5-1.53-5.47-3.15c-2.83-2.32-6.02-4.95-10.42-4.95s-7.59,2.63-10.42,4.95c-2.01,1.61-3.89,3.15-5.47,3.15-1.65,0-3.58-1.53-5.66-3.19-2.87-2.32-6.17-4.92-10.54-4.92s-7.39,2.56-10.22,4.84c-2.04,1.69-4.01,3.26-5.66,3.26-3.19,0-9.75-4.25-13.41-7.24-1.69-1.38-4.17-1.14-5.54.55-1.38,1.69-1.14,4.17.55,5.54,1.81,1.49,11.32,9,18.36,9,4.4,0,7.71-2.63,10.62-4.99,1.89-1.53,3.85-3.11,5.27-3.11,1.65,0,3.58,1.53,5.66,3.19,2.87,2.32,6.17,4.92,10.54,4.92s7.59-2.63,10.42-4.95c2.01-1.61,3.89-3.15,5.47-3.15s3.5,1.53,5.47,3.15c2.83,2.32,6.02,4.95,10.42,4.95s7.63-2.6,10.54-4.92c2.08-1.61,4.05-3.19,5.66-3.19,1.42,0,3.38,1.57,5.27,3.11,2.91,2.32,6.17,4.99,10.62,4.99h0c7.04,0,16.52-7.51,18.44-9,1.69-1.38,1.93-3.85.55-5.54-1.38-1.69-3.85-1.93-5.54-.55Z"/>
  </g>
  <g>
    <path class="cls-1" d="m149.8,46.26c-3.7,3.03-10.26,7.24-13.41,7.24-1.61,0-3.58-1.57-5.66-3.26-2.83-2.24-6.02-4.84-10.22-4.84s-7.63,2.6-10.54,4.92c-2.08,1.61-4.05,3.19-5.66,3.19s-3.5-1.53-5.47-3.15c-2.83-2.32-6.02-4.95-10.42-4.95s-7.59,2.63-10.42,4.95c-2.01,1.61-3.89,3.15-5.47,3.15-1.65,0-3.58-1.53-5.66-3.19-2.87-2.32-6.17-4.92-10.54-4.92s-7.39,2.56-10.22,4.84c-2.04,1.69-4.01,3.26-5.66,3.26-3.19,0-9.75-4.25-13.41-7.24-1.69-1.38-4.17-1.14-5.54.55-1.38,1.69-1.14,4.17.55,5.54,1.81,1.49,11.32,9,18.36,9,4.4,0,7.71-2.63,10.62-4.99,1.89-1.53,3.85-3.11,5.27-3.11,1.65,0,3.58,1.53,5.66,3.19,2.87,2.32,6.17,4.92,10.54,4.92s7.59-2.63,10.42-4.95c2.01-1.61,3.89-3.15,5.47-3.15s3.5,1.53,5.47,3.15c2.83,2.32,6.02,4.95,10.42,4.95s7.63-2.6,10.54-4.92c2.08-1.61,4.05-3.19,5.66-3.19,1.42,0,3.38,1.57,5.27,3.11,2.91,2.32,6.17,4.99,10.62,4.99,7.04,0,16.52-7.47,18.44-9,1.69-1.38,1.93-3.85.55-5.54-1.38-1.69-3.85-1.93-5.54-.55Z"/>
    <path class="cls-1" d="m149.8,70.32c-3.7,3.03-10.26,7.24-13.41,7.24-1.61,0-3.58-1.57-5.66-3.26-2.83-2.24-6.02-4.84-10.22-4.84s-7.63,2.6-10.54,4.92c-2.08,1.61-4.05,3.19-5.66,3.19s-3.5-1.53-5.47-3.15c-2.83-2.32-6.02-4.95-10.42-4.95s-7.59,2.63-10.42,4.95c-2.01,1.61-3.89,3.15-5.47,3.15-1.65,0-3.58-1.53-5.66-3.19-2.87-2.32-6.17-4.92-10.54-4.92s-7.39,2.56-10.22,4.84c-2.04,1.69-4.01,3.26-5.66,3.26-3.19,0-9.75-4.25-13.41-7.24-1.69-1.38-4.17-1.14-5.54.55-1.38,1.69-1.14,4.17.55,5.54,1.81,1.49,11.32,9,18.36,9,4.4,0,7.71-2.63,10.62-4.99,1.89-1.53,3.85-3.11,5.27-3.11,1.65,0,3.58,1.53,5.66,3.19,2.87,2.32,6.17,4.92,10.54,4.92s7.59-2.63,10.42-4.95c2.01-1.61,3.89-3.15,5.47-3.15s3.5,1.53,5.47,3.15c2.83,2.32,6.02,4.95,10.42,4.95s7.63-2.6,10.54-4.92c2.08-1.61,4.05-3.19,5.66-3.19,1.42,0,3.38,1.57,5.27,3.11,2.91,2.32,6.17,4.99,10.62,4.99h0c7.04,0,16.52-7.51,18.44-9,1.69-1.38,1.93-3.85.55-5.54-1.38-1.69-3.85-1.93-5.54-.55Z"/>
  </g>
</svg>