<?xml version="1.0" encoding="UTF-8"?>
<svg id="Layer_1" data-name="Layer 1" xmlns="http://www.w3.org/2000/svg" viewBox="0 0 280 168">
  <defs>
    <style>
      .cls-1 {
        fill: #02679a;
      }

      .cls-2 {
        fill: #025073;
      }

      .cls-3 {
        fill: #ea2128;
      }

      .cls-4 {
        fill: #fff;
      }

      .cls-5 {
        fill: #fedc13;
      }

      .cls-6 {
        fill: #0099cd;
      }

      .cls-7 {
        fill: #babcbe;
      }

      .cls-8 {
        fill: #a5a7aa;
      }

      .cls-9 {
        fill: #12b9ec;
      }

      .cls-10 {
        fill: #231f20;
      }

      .cls-11 {
        fill: #414142;
      }

      .cls-12 {
        fill: #056098;
      }

      .cls-13 {
        fill: #0dbbe7;
      }

      .cls-14 {
        fill: #0888b6;
      }

      .cls-15 {
        fill: #0c6295;
      }

      .cls-16 {
        fill: #0c87b9;
      }

      .cls-17 {
        fill: #808083;
      }

      .cls-18 {
        fill: #010101;
        opacity: .16;
      }
    </style>
  </defs>
  <ellipse class="cls-18" cx="137.6" cy="138.14" rx="57.61" ry="20.37"/>
  <ellipse class="cls-18" cx="242" cy="141.65" rx="29.61" ry="10.47"/>
  <ellipse class="cls-18" cx="44.41" cy="131.8" rx="21.55" ry="7.62"/>
  <path class="cls-18" d="m53.37,156.11c0,4.48-10.27,8.11-22.93,8.11s-22.93-3.63-22.93-8.11,10.27-8.11,22.93-8.11,22.93,3.63,22.93,8.11Z"/>
  <ellipse class="cls-7" cx="47.51" cy="147.49" rx="16.52" ry="5.84"/>
  <polygon class="cls-5" points="207.49 117.29 208.51 119.34 210.78 119.67 209.13 121.28 209.52 123.54 207.49 122.47 205.46 123.54 205.85 121.28 204.21 119.67 206.48 119.34 207.49 117.29"/>
  <ellipse class="cls-18" cx="226.88" cy="119.88" rx="21.55" ry="7.62"/>
  <path class="cls-15" d="m134.02,124.47c4.56-.12,7.55-.12,7.6-.12v-11.8c-.52,0-13.59,0-27.35,1.19-11.84,1.03-19.58,2.53-24.7,4.31-1.22.41-2.29.85-3.23,1.3-4.21,2-5.88,4.25-6.77,6.51-1.05,2.65-.71,5.49.92,7.8,2.5,3.55,8.16,6.94,32.4,7.79,4.11.15,8.13.19,11.68.19,7.17,0,12.46-.2,12.78-.21l-.45-11.79c-.11,0-10.65.4-22.01.07-8.71-.25-14.49-.84-18.28-1.45,4.01-1.01,10.43-2.13,20.64-2.94,6.23-.5,12.27-.74,16.78-.86Z"/>
  <path class="cls-2" d="m141.64,112.55l-2.27,10.51-5.34,1.41c-4.51.12-10.55.37-16.78.86-10.2.81-16.63,1.92-20.64,2.94,0,0-3.59-.9-3.88-2.37,0,0,3.74-6.63-6.38-6.55l3.23-1.3c5.12-1.78,12.86-3.28,24.7-4.31,13.76-1.2,26.83-1.19,27.36-1.19Z"/>
  <path class="cls-15" d="m164.36,107.62h-22.9c.17-2.06.14-4.02-.04-5.86-.37-3.9-1.38-7.26-2.42-9.83-1.41-3.5-2.88-5.55-2.88-5.55l20.66-9.14c1.49,2.5,2.68,5.16,3.64,7.83,2,5.55,2.98,11.13,3.47,15.35.5,4.31.47,7.2.47,7.2Z"/>
  <path class="cls-2" d="m160.42,85.07c-4.7,5.21-14.64,6.57-21.42,6.87-1.41-3.5-2.88-5.55-2.88-5.55l20.66-9.14c1.49,2.5,2.68,5.16,3.64,7.83Z"/>
  <path class="cls-2" d="m140.22,95.5s11.54,3.9,22.2-3.56c0,0-7.74,10.03-22.2,3.56Z"/>
  <path class="cls-2" d="m164.36,107.62h-22.9c.17-2.06.14-4.02-.04-5.86l.22-.09s12.31-4.75,22.26-1.25c.5,4.31.47,7.2.47,7.2Z"/>
  <path class="cls-17" d="m217.49,115.22s0-.07,0-.11v-1.58l.69-.39c.08-.11.15-.22.24-.33,1.9-2.34,6.04-3.12,9.26-1.74,1.36.58,2.33,1.46,2.86,2.45h.47v1.96h0c-.04.79-.34,1.59-.93,2.32-1.9,2.34-6.04,3.12-9.26,1.74-2.06-.88-3.24-2.44-3.32-4.06h0v-.26Z"/>
  <path class="cls-8" d="m218.43,111.03c-1.9,2.34-.83,5.35,2.39,6.73,3.22,1.38,7.36.6,9.26-1.74s.83-5.35-2.39-6.73c-3.22-1.38-7.36-.6-9.26,1.74Z"/>
  <path class="cls-2" d="m156.77,66.33s.03.09.1.26c.04.1.08.22.14.36.05.12.11.26.17.42.26.63.64,1.51,1.17,2.59.52,1.08,1.17,2.36,1.97,3.79.79,1.43,1.75,3,2.83,4.68,1.1,1.66,2.32,3.44,3.72,5.24.68.91,1.43,1.81,2.18,2.73.78.9,1.55,1.84,2.4,2.74,1.65,1.84,3.48,3.62,5.37,5.38,1.93,1.73,3.93,3.42,6.04,4.98l1.58,1.17c.53.38,1.08.74,1.62,1.1.54.36,1.07.74,1.62,1.08.55.34,1.1.68,1.65,1.01,1.08.69,2.21,1.29,3.3,1.9,1.08.63,2.21,1.15,3.3,1.69,1.08.56,2.19,1.01,3.25,1.48.54.23,1.06.47,1.59.68.53.2,1.06.4,1.58.6,2.06.83,4.07,1.42,5.89,2.02.93.25,1.82.5,2.66.73.42.11.83.23,1.23.34.4.09.8.18,1.18.26,1.52.32,2.84.67,3.94.83,2.19.37,3.45.59,3.45.59l.72-3.64s-1.17-.33-3.23-.9c-1.03-.26-2.25-.71-3.66-1.16-.35-.12-.71-.24-1.09-.36-.37-.14-.74-.29-1.13-.44-.77-.3-1.58-.61-2.43-.94-1.66-.74-3.47-1.47-5.3-2.44-.46-.23-.93-.47-1.4-.7-.47-.24-.93-.52-1.4-.78-.94-.54-1.91-1.05-2.85-1.67-.94-.6-1.93-1.18-2.86-1.85-.94-.66-1.91-1.3-2.83-2.03-.46-.35-.93-.71-1.4-1.07-.46-.36-.91-.75-1.36-1.13-.45-.38-.91-.75-1.36-1.14l-1.31-1.2c-1.75-1.59-3.39-3.3-4.95-5.01-1.52-1.75-2.99-3.49-4.28-5.27-.67-.87-1.27-1.78-1.88-2.64-.58-.89-1.16-1.74-1.67-2.6-1.06-1.7-1.97-3.37-2.78-4.91-.78-1.56-1.48-2.99-2.02-4.28-.56-1.29-1-2.42-1.33-3.34-.34-.93-.56-1.64-.7-2.11-.03-.11-.06-.22-.09-.3-.02-.07-.03-.12-.04-.17-.03-.12-.05-.18-.05-.18l-11.23,3.61Z"/>
  <path class="cls-14" d="m220.13,112.72l.98.64c.14-.25.32-.52.48-.77l.18-.27.15-.17.29-.34.07-.08.04-.04.02-.02.09-.12h.01s.21-.22.21-.22l.43-.41c1.18-1.07,2.61-1.92,4.11-2.47l5.53-3.29h7.38v4.13l-1.29,1.79s-.19-.04-.53-.11c-.09-.02-.18-.04-.29-.06-.11-.02-.23-.05-.32-.06-.2-.02-.42-.04-.68-.07-.27-.01-.58-.03-.91-.05-.33.01-.68,0-1.05.03-.73.03-1.54.18-2.34.4-.8.23-1.6.56-2.31.99-.7.44-1.33.97-1.77,1.59l-.16.24-.08.12h0c.17-.21.04-.05.08-.09v.02s-.04.05-.04.05l-.05.09-.22.36c-.03.06-.08.13-.1.18l-.02.1c-.03.14-.08.23-.11.42-.04.17-.09.34-.09.52-.06.69.05,1.38.33,2.03.28.65.73,1.24,1.27,1.77.12.14.28.26.44.38.14.13.32.23.48.35.15.13.36.2.53.31l.07.04.03.02h.02c-.07-.02.17.08-.16-.05h.01s.23.11.23.11l.46.2c.07.03.17.08.21.09l.11.04c.07.03.14.05.21.08.05.03.16.06.27.09l.31.1c.41.11.83.21,1.26.27.57.08,1.14.12,1.69.11l-.08-.07,8.96-4.75v4.13s-.07.15-.22.44c-.08.14-.16.33-.31.52-.15.2-.32.43-.51.68-.22.24-.49.51-.79.79-.16.13-.34.28-.51.42-.09.07-.18.15-.28.22-.1.07-.21.14-.32.21-.84.58-1.96,1.12-3.31,1.55-1.35.42-2.95.71-4.69.74-.43,0-.88,0-1.33-.03-.45-.04-.91-.06-1.36-.14-.23-.04-.45-.07-.68-.11-.23-.04-.45-.07-.72-.14-.25-.07-.51-.13-.76-.2l-.38-.11-.26-.08-.49-.16-.25-.08h-.02s-.19-.08-.19-.08l-.04-.02-.08-.03-.16-.07c-.42-.19-.86-.36-1.25-.59-.82-.43-1.59-.93-2.25-1.51-1.36-1.14-2.33-2.54-2.82-4.02-.18-.58-.28-1.18-.32-1.77v-.02s-.01-4.69-.01-4.69Z"/>
  <path class="cls-13" d="m240.11,105.14s-.15-.09-.43-.25c-.07-.04-.15-.09-.24-.14-.09-.05-.17-.11-.32-.17-.27-.12-.59-.26-.96-.41-.35-.12-.75-.25-1.2-.38-.23-.05-.47-.11-.71-.17-.13-.03-.25-.06-.38-.09-.13-.02-.27-.04-.4-.06-1.1-.19-2.4-.27-3.81-.15-1.42.1-2.96.41-4.45.97-1.51.55-2.93,1.41-4.11,2.47l-.43.41-.21.21h-.01s-.09.13-.09.13l-.02.02-.04.04-.07.08-.29.34-.15.17-.18.27c-.23.36-.5.75-.64,1.08-.17.34-.33.69-.44,1.05-.49,1.43-.51,2.99-.05,4.47.49,1.48,1.46,2.88,2.82,4.02.66.58,1.43,1.08,2.25,1.51.39.23.84.4,1.25.59l.16.07.08.03.04.02.19.08h.02s.25.08.25.08l.49.16.26.08.38.11c.26.07.51.13.76.2.26.07.49.11.72.14.23.04.46.07.68.11.45.07.91.1,1.36.14.45.04.89.02,1.33.03,1.74-.03,3.34-.32,4.69-.74,1.35-.43,2.47-.97,3.31-1.55.11-.07.21-.14.32-.21.09-.08.19-.15.28-.22.18-.15.35-.29.51-.42.3-.28.57-.55.79-.79.19-.26.36-.48.51-.68.15-.2.22-.38.31-.52.16-.28.22-.44.22-.44l-2.7-1.16s-.14.08-.37.22c-.23.15-.6.34-1.04.57-.25.09-.49.22-.77.33-.3.09-.59.22-.93.3-.65.2-1.42.34-2.23.4-.81.07-1.68.05-2.53-.08-.43-.06-.85-.16-1.26-.27l-.31-.1c-.1-.03-.21-.06-.27-.09-.07-.03-.14-.06-.21-.08l-.11-.04s-.14-.06-.21-.09l-.46-.2-.23-.1h-.01c.34.13.09.03.16.06h-.02s-.03-.03-.03-.03l-.07-.04c-.17-.11-.38-.19-.53-.31-.16-.12-.34-.22-.48-.35-.15-.12-.31-.24-.44-.38-.54-.53-.99-1.12-1.27-1.77-.28-.65-.4-1.34-.33-2.03,0-.18.05-.34.09-.52.03-.2.09-.28.11-.42l.02-.1c.03-.05.07-.12.1-.18l.22-.36.05-.09.03-.05v-.02s.1-.12-.06.1h0s.08-.12.08-.12l.16-.24c.44-.62,1.07-1.15,1.77-1.59.71-.43,1.51-.76,2.31-.99.8-.22,1.61-.37,2.34-.4.37-.04.72-.02,1.05-.03.33.02.64.03.91.05.25.03.48.05.68.07.09,0,.22.03.32.06.11.02.2.04.29.06.35.07.53.11.53.11l1.29-1.79Z"/>
  <path class="cls-17" d="m217.49,111.09s0-.07,0-.11v-1.58l.69-.39c.08-.11.15-.22.24-.33,1.9-2.34,6.04-3.12,9.26-1.74,1.36.58,2.33,1.46,2.86,2.45h.47v1.96h0c-.04.79-.34,1.59-.93,2.32-1.9,2.34-6.04,3.12-9.26,1.74-2.06-.88-3.24-2.44-3.32-4.06h0v-.26Z"/>
  <path class="cls-8" d="m218.43,106.9c-1.9,2.34-.83,5.35,2.39,6.73,3.22,1.38,7.36.6,9.26-1.74,1.9-2.34.83-5.35-2.39-6.73-3.22-1.38-7.36-.6-9.26,1.74Z"/>
  <path class="cls-11" d="m221.03,107.43c-1.04,1.28-.45,2.92,1.31,3.68,1.76.75,4.02.33,5.06-.95,1.04-1.28.45-2.92-1.31-3.68-1.76-.75-4.02-.33-5.06.95Z"/>
  <path class="cls-17" d="m57.93,126.81s0-.07,0-.11v-1.58l-.69-.39c-.08-.11-.15-.22-.24-.33-1.9-2.34-6.04-3.12-9.26-1.74-1.36.58-2.33,1.46-2.86,2.45h-.47v1.96h0c.04.79.34,1.59.93,2.32,1.9,2.34,6.04,3.12,9.26,1.74,2.06-.88,3.24-2.44,3.32-4.06h0v-.26Z"/>
  <path class="cls-8" d="m57,122.62c1.9,2.34.83,5.35-2.39,6.73s-7.36.6-9.26-1.74c-1.9-2.34-.83-5.35,2.39-6.73,3.22-1.38,7.36-.6,9.26,1.74Z"/>
  <path class="cls-15" d="m118.65,77.92s-.03.09-.09.25c-.04.1-.09.22-.14.37-.05.12-.11.26-.17.42-.27.63-.64,1.51-1.17,2.58-.52,1.09-1.17,2.36-1.97,3.79-.63,1.13-1.35,2.35-2.16,3.63-.22.34-.44.69-.67,1.04-1.1,1.66-2.32,3.44-3.72,5.24-.68.9-1.43,1.81-2.18,2.73-.78.9-1.56,1.84-2.41,2.74-1.65,1.85-3.48,3.62-5.37,5.39-1.93,1.73-3.93,3.42-6.04,4.98l-1.57,1.17c-.53.38-1.08.73-1.62,1.1-.54.36-1.07.73-1.62,1.08-.55.34-1.1.67-1.65,1.01-1.08.69-2.2,1.29-3.3,1.89-1.09.63-2.21,1.14-3.3,1.69-1.08.56-2.19,1.01-3.26,1.48-.54.23-1.06.48-1.59.68-.53.2-1.06.4-1.57.6-2.06.83-4.07,1.42-5.89,2.02-.93.25-1.82.5-2.67.73-.42.11-.83.22-1.23.33-.4.09-.8.18-1.17.27-1.53.32-2.84.67-3.94.83-.09.02-.18.03-.27.04-.04.01-.08.02-.11.02-.86.15-1.56.27-2.07.35-.18.03-.32.06-.45.08-.12.02-.21.04-.29.05-.17.03-.26.05-.26.05l-.25-1.27-.08-.39-.39-1.97s.25-.07.71-.2c.09-.02.19-.05.31-.08.41-.11.93-.26,1.56-.43.21-.06.42-.12.65-.18.18-.05.37-.1.57-.16.04,0,.07-.02.11-.03.88-.26,1.87-.62,2.98-.97.35-.12.71-.24,1.08-.36.37-.14.74-.29,1.13-.44.77-.3,1.58-.61,2.43-.94,1.66-.74,3.47-1.47,5.3-2.44.47-.23.93-.47,1.4-.7.47-.24.93-.52,1.4-.78.94-.54,1.92-1.05,2.86-1.67.94-.6,1.92-1.17,2.86-1.85.94-.66,1.91-1.3,2.83-2.04l1.4-1.06c.47-.37.91-.76,1.36-1.13.45-.38.91-.76,1.36-1.14l1.32-1.2c1.75-1.59,3.39-3.29,4.95-5.01,1.52-1.75,2.99-3.49,4.28-5.27.67-.87,1.26-1.78,1.88-2.64.58-.88,1.16-1.74,1.68-2.6,1.06-1.7,1.96-3.37,2.78-4.91.36-.71.7-1.39,1.01-2.05.37-.78.71-1.53,1.01-2.23.55-1.29,1-2.42,1.33-3.34.34-.93.56-1.65.7-2.11.04-.11.06-.22.09-.3.02-.07.03-.12.04-.17.04-.12.05-.18.05-.18l11.23,3.62Z"/>
  <path class="cls-14" d="m55.29,124.31l-.98.64c-.14-.25-.32-.52-.48-.77l-.18-.27-.15-.17-.29-.34-.07-.08-.04-.04-.02-.02-.09-.12h-.01s-.21-.22-.21-.22l-.43-.41c-1.18-1.07-2.61-1.92-4.11-2.47l-5.53-3.29h-7.38v4.13l1.29,1.79s.19-.04.53-.11c.09-.02.18-.04.29-.06.11-.02.23-.05.32-.05.2-.02.42-.04.68-.07.27-.01.58-.03.91-.05.33.01.68,0,1.05.03.73.03,1.54.18,2.34.4.8.23,1.6.56,2.31.99.7.44,1.33.97,1.77,1.59l.16.24.08.12h0c-.17-.21-.04-.05-.08-.09v.02s.04.05.04.05l.05.09.22.36c.03.06.08.13.1.18l.02.1c.03.14.08.23.11.42.04.17.09.34.09.52.06.69-.05,1.38-.33,2.03-.28.65-.73,1.24-1.27,1.77-.12.14-.28.26-.44.38-.14.13-.32.23-.48.35-.15.13-.36.2-.53.31l-.07.04-.03.02h-.02c.07-.02-.17.08.16-.05h-.01s-.23.11-.23.11l-.46.2c-.07.03-.17.08-.21.09l-.11.04c-.07.03-.14.05-.21.08-.05.03-.16.06-.27.09l-.31.1c-.41.11-.83.21-1.26.27-.57.08-1.14.12-1.69.11l.08-.07-8.96-4.75v4.13s.07.15.22.44c.08.14.16.33.31.52.15.2.32.43.51.68.22.24.49.51.79.79.16.13.34.28.51.42.09.07.18.15.28.22.1.07.21.14.32.21.84.58,1.96,1.12,3.31,1.55,1.35.42,2.95.71,4.69.74.43,0,.88,0,1.33-.03.45-.04.91-.06,1.36-.14.23-.04.45-.07.68-.11.23-.04.45-.07.72-.14.25-.07.51-.13.76-.2l.38-.11.26-.08.49-.16.25-.08h.02s.19-.08.19-.08l.04-.02.08-.03.16-.07c.42-.19.86-.36,1.25-.59.82-.43,1.59-.93,2.25-1.51,1.36-1.14,2.33-2.54,2.82-4.02.18-.58.28-1.18.32-1.77v-.02s.01-4.69.01-4.69Z"/>
  <path class="cls-13" d="m35.32,116.73s.15-.09.43-.25c.07-.04.15-.09.24-.14.09-.05.17-.11.32-.17.27-.12.59-.26.96-.41.35-.12.75-.25,1.2-.38.23-.05.47-.11.71-.17.13-.03.25-.06.38-.09.13-.02.27-.04.4-.06,1.1-.19,2.4-.27,3.81-.15,1.42.1,2.96.41,4.45.97,1.51.55,2.93,1.41,4.11,2.47l.43.41.21.21h.01s.09.13.09.13l.02.02.04.04.07.08.29.34.15.17.18.27c.23.36.5.75.64,1.08.17.34.33.69.44,1.05.49,1.43.51,2.99.05,4.47-.49,1.48-1.46,2.88-2.82,4.02-.66.58-1.43,1.08-2.25,1.51-.39.23-.84.4-1.25.59l-.16.07-.08.03-.04.02-.19.08h-.02s-.25.08-.25.08l-.49.16-.26.08-.38.11c-.26.07-.51.13-.76.2-.26.07-.49.11-.72.14-.23.04-.46.07-.68.11-.45.07-.91.1-1.36.14-.45.04-.89.02-1.33.03-1.74-.03-3.34-.32-4.69-.74-1.35-.43-2.47-.97-3.31-1.55-.11-.07-.21-.14-.32-.21-.09-.08-.19-.15-.28-.22-.18-.15-.35-.29-.51-.42-.3-.28-.57-.55-.79-.79-.19-.26-.36-.48-.51-.68-.15-.2-.22-.38-.31-.52-.16-.28-.22-.44-.22-.44l2.7-1.16s.14.08.37.22c.23.15.6.34,1.04.57.25.09.49.22.77.33.3.09.59.22.93.3.65.2,1.42.34,2.23.4.81.07,1.68.05,2.53-.08.43-.06.85-.16,1.26-.27l.31-.1c.1-.03.21-.06.27-.09.07-.03.14-.06.21-.08l.11-.04s.14-.06.21-.09l.46-.2.23-.1h.01c-.34.13-.09.03-.16.06h.02s.03-.03.03-.03l.07-.04c.17-.11.38-.19.53-.31.16-.12.34-.22.48-.35.15-.12.31-.24.44-.38.54-.53.99-1.12,1.27-1.77.28-.65.4-1.34.33-2.03,0-.18-.05-.34-.09-.52-.03-.2-.09-.28-.11-.42l-.02-.1c-.03-.05-.07-.12-.1-.18l-.22-.36-.05-.09-.03-.05v-.02s-.1-.12.06.1h0s-.08-.12-.08-.12l-.16-.24c-.44-.62-1.07-1.15-1.77-1.59-.71-.43-1.51-.76-2.31-.99-.8-.22-1.61-.37-2.34-.4-.37-.04-.72-.02-1.05-.03-.33.02-.64.03-.91.05-.25.03-.48.05-.68.07-.09,0-.22.03-.32.06-.11.02-.2.04-.29.06-.35.07-.53.11-.53.11l-1.29-1.79Z"/>
  <path class="cls-17" d="m57.93,122.68s0-.07,0-.11v-1.58l-.69-.39c-.08-.11-.15-.22-.24-.33-1.9-2.34-6.04-3.12-9.26-1.74-1.36.58-2.33,1.46-2.86,2.45h-.47v1.96h0c.04.79.34,1.59.93,2.32,1.9,2.34,6.04,3.12,9.26,1.74,2.06-.88,3.24-2.44,3.32-4.06h0v-.26Z"/>
  <path class="cls-8" d="m57,118.49c1.9,2.34.83,5.35-2.39,6.73s-7.36.6-9.26-1.74c-1.9-2.34-.83-5.35,2.39-6.73s7.36-.6,9.26,1.74Z"/>
  <path class="cls-11" d="m54.39,119.02c1.04,1.28.45,2.92-1.31,3.68-1.76.75-4.02.33-5.06-.95-1.04-1.28-.45-2.92,1.31-3.68,1.76-.75,4.02-.33,5.06.95Z"/>
  <path class="cls-2" d="m118.65,77.92s-.03.09-.09.25c-.04.1-.09.22-.14.37-.05.12-.11.26-.17.42-.27.63-.64,1.51-1.17,2.58-.52,1.09-1.17,2.36-1.97,3.79-.63,1.13-1.35,2.35-2.16,3.63-4.14-1.54-6.91-3.99-8.74-6.33.37-.78.71-1.53,1.01-2.23.55-1.29,1-2.42,1.33-3.34.34-.93.56-1.65.7-2.11.04-.11.06-.22.09-.3.02-.07.03-.12.04-.17.04-.12.05-.18.05-.18l11.23,3.62Z"/>
  <path class="cls-2" d="m99.51,91.01s.09.14.27.37c.18.22.43.53.75.87.17.17.34.34.54.52.19.18.41.35.63.53.21.19.47.33.71.51.25.16.51.32.77.47.27.13.53.3.8.42.28.11.53.27.81.37.27.1.53.21.78.32.26.08.5.17.72.25.22.08.43.16.62.22.19.06.35.12.49.17.27.1.43.17.43.17,0,0-.16.03-.45.07-.15.02-.32.04-.53.05-.2.02-.44.03-.68,0-.25-.01-.52-.03-.81-.06-.28-.05-.59-.11-.9-.19-.31-.07-.62-.19-.94-.3-.32-.11-.62-.29-.93-.44-.3-.18-.59-.37-.86-.57-.26-.22-.52-.43-.74-.67-.23-.22-.42-.48-.59-.72-.18-.24-.31-.49-.43-.71-.12-.23-.21-.45-.27-.64-.08-.19-.11-.37-.14-.52-.06-.29-.05-.46-.05-.46Z"/>
  <path class="cls-2" d="m93.41,99.14s.42.4.96,1.01c.56.59,1.26,1.4,1.98,2.15.18.18.36.38.54.56.19.17.35.37.54.53.18.16.34.34.52.48.17.14.32.31.48.42.16.12.3.24.43.35.13.1.25.19.35.26.19.15.31.25.31.25,0,0-.14,0-.39-.03-.26-.02-.61-.1-1.02-.24-.21-.06-.42-.17-.64-.28-.23-.1-.44-.25-.67-.4-.23-.14-.44-.32-.66-.5-.22-.18-.42-.39-.62-.59-.39-.42-.74-.87-1.02-1.32-.29-.45-.51-.89-.67-1.29-.33-.78-.39-1.37-.39-1.37Z"/>
  <path class="cls-2" d="m86.32,106.3s.36.37.81.93c.46.56,1.01,1.31,1.56,2.06.27.37.55.74.8,1.08.27.34.51.66.73.94.23.26.41.51.56.66.14.17.22.27.22.27,0,0-.13-.02-.34-.07-.11-.03-.25-.05-.39-.12-.14-.06-.31-.13-.48-.22-.34-.18-.71-.43-1.06-.75-.35-.32-.69-.7-.99-1.1-.29-.41-.55-.83-.75-1.26-.21-.42-.35-.83-.45-1.19-.21-.72-.21-1.24-.21-1.24Z"/>
  <path class="cls-2" d="m79.37,111.67s.31.35.66.88c.18.27.37.58.57.91.2.33.39.7.58,1.05.19.35.37.71.55,1.04.08.17.18.32.26.47.08.16.17.29.24.42.07.14.16.24.22.35.07.11.13.2.19.27.11.15.18.25.18.25,0,0-.11,0-.31-.05-.1-.02-.22-.05-.35-.12-.12-.06-.29-.12-.42-.23-.14-.1-.31-.2-.45-.34-.14-.13-.3-.28-.43-.44-.28-.32-.53-.69-.73-1.08-.41-.78-.66-1.63-.74-2.28-.09-.65-.02-1.12-.02-1.12Z"/>
  <path class="cls-2" d="m72.25,115.97s.26.33.52.82c.28.49.56,1.15.81,1.81.12.32.24.65.35.95.11.31.21.58.31.82.1.24.19.45.28.58.09.14.14.24.14.24,0,0-.1,0-.28-.05-.09-.02-.2-.06-.31-.12-.12-.06-.25-.13-.36-.23-.25-.18-.5-.45-.71-.76-.22-.31-.39-.66-.53-1.02-.28-.72-.39-1.49-.36-2.07,0-.58.14-.98.14-.98Z"/>
  <path class="cls-2" d="m64.23,119.63s.24.27.47.67c.25.4.48.95.67,1.5.18.55.32,1.11.39,1.57.04.22.06.43.08.57.01.15.02.24.02.24,0,0-.08-.03-.21-.11-.13-.08-.3-.2-.48-.38-.36-.35-.71-.91-.91-1.51-.2-.6-.27-1.24-.21-1.73.04-.49.19-.82.19-.82Z"/>
  <path class="cls-14" d="m168.21,58c4.27,12.2-5.83,26.82-22.56,32.68-16.73,5.85-33.74.71-38.01-11.49-2.53-7.23,0-15.31,5.95-21.92,4.09-4.54,9.8-8.37,16.61-10.75,6.81-2.38,13.67-2.94,19.69-1.94,8.77,1.45,15.79,6.2,18.31,13.43Z"/>
  <path class="cls-13" d="m160.6,54.43c3.47,9.91-4.74,21.8-18.33,26.55-13.59,4.75-27.42.57-30.89-9.34-1.63-4.67-.67-9.78,2.22-14.38,4.09-4.54,9.8-8.37,16.61-10.75,6.81-2.38,13.67-2.94,19.69-1.94,5.12,1.79,9.06,5.19,10.7,9.86Z"/>
  <polygon class="cls-5" points="151.09 24.09 144.45 31.83 147.33 32.46 143.33 40.31 151 31.32 147.93 30.65 151.09 24.09"/>
  <polygon class="cls-5" points="136.09 101.94 126.53 98.37 126.94 101.29 118.19 100.24 129.27 104.34 128.84 101.23 136.09 101.94"/>
  <polygon class="cls-5" points="264.38 119.77 254.21 120.54 255.8 123.02 247.42 125.75 259.2 124.81 257.5 122.16 264.38 119.77"/>
  <polygon class="cls-5" points="228.75 129.53 218.95 126.72 219.58 129.6 210.78 129.24 222.15 132.46 221.48 129.39 228.75 129.53"/>
  <polygon class="cls-5" points="133.43 106.42 126.91 106.43 128.41 108.36 123.43 109.9 130.98 109.87 129.37 107.81 133.43 106.42"/>
  <polygon class="cls-5" points="139.04 18.44 137.6 28.54 140.37 27.52 141.22 36.29 142.85 24.58 139.9 25.67 139.04 18.44"/>
  <polygon class="cls-5" points="83.57 88.19 93.2 84.84 91.02 82.84 98.42 78.06 87.27 81.99 89.59 84.11 83.57 88.19"/>
  <polygon class="cls-5" points="73.85 75.91 83.86 77.83 82.98 75.02 91.78 74.59 80.16 72.4 81.11 75.4 73.85 75.91"/>
  <circle class="cls-15" cx="128.04" cy="63.46" r="8.4" transform="translate(44.98 179.74) rotate(-80.82)"/>
  <path class="cls-9" d="m128.28,39.96l-28.71,24.66c-3.44,2.96-2.32,10.22-5.28,6.78l-15.39-18.08c-2.96-3.44-2.56-8.68.88-11.64l28.71-24.66c3.44-2.96,8.68-2.56,11.64.88l14.1,16.59c2.96,3.44-2.51,2.51-5.96,5.47Z"/>
  <polygon class="cls-12" points="90.04 25.68 100.8 39.69 103.19 37.63 90.97 24.88 90.04 25.68"/>
  <path class="cls-16" d="m141.38,55.4l-28.71,24.66c-3.44,2.96-8.68,2.56-11.64-.88l-9.02-10.42c-2.96-3.44-2.56-8.68.88-11.64l28.71-24.66c3.44-2.96,8.68-2.56,11.64.88l9.02,10.42c2.96,3.44,2.56,8.68-.88,11.64Z"/>
  <path class="cls-10" d="m138.62,52.8l-28.1,24.14c-1.93,1.66-4.86,1.43-6.52-.5l-8.84-10.21c-1.66-1.93-1.43-4.86.5-6.52l28.1-24.14c1.93-1.66,4.86-1.43,6.52.5l8.84,10.21c1.66,1.93,1.43,4.86-.5,6.52Z"/>
  <path class="cls-3" d="m92.13,23.88c.77.9.67,2.26-.23,3.03-.9.77-2.26.67-3.03-.23-.77-.9-.67-2.26.23-3.03.9-.77,2.26-.67,3.03.23Z"/>
  <g>
    <polygon class="cls-8" points="108.79 58.42 108.63 58.25 109.68 57.35 109.16 56.75 110.2 55.85 109.68 55.25 110.72 54.35 109.69 53.15 107.6 54.94 108.12 55.54 107.08 56.44 107.6 57.04 106.56 57.94 107.07 58.54 106.77 58.8 106.03 59.44 105.72 59.7 105.21 59.1 104.16 60 103.65 59.39 102.6 60.29 102.09 59.69 100 61.48 101.04 62.68 102.08 61.79 102.6 62.39 103.64 61.49 104.16 62.1 105.2 61.2 105.35 61.38 105.72 61.8 105.87 61.98 104.83 62.87 105.35 63.48 104.3 64.37 104.82 64.98 103.78 65.87 104.81 67.08 106.9 65.28 106.38 64.68 107.42 63.78 106.91 63.18 107.95 62.29 107.43 61.68 107.74 61.42 108.47 60.79 108.78 60.52 109.3 61.13 110.34 60.23 110.86 60.83 111.9 59.94 112.42 60.54 114.5 58.75 113.47 57.54 112.42 58.44 111.91 57.84 110.86 58.73 110.35 58.13 109.3 59.03 109.15 58.85 108.79 58.42"/>
    <polygon class="cls-8" points="123.62 45.67 123.47 45.49 124.51 44.6 123.99 43.99 125.03 43.1 124.52 42.49 125.56 41.6 124.52 40.39 122.44 42.19 122.96 42.79 121.91 43.69 122.43 44.29 121.39 45.18 121.91 45.79 121.6 46.05 120.87 46.68 120.56 46.95 120.04 46.34 119 47.24 118.48 46.64 117.44 47.53 116.92 46.93 114.84 48.72 115.87 49.93 116.91 49.03 117.43 49.63 118.47 48.74 118.99 49.34 120.03 48.44 120.19 48.62 120.55 49.05 120.7 49.22 119.66 50.12 120.18 50.72 119.14 51.62 119.66 52.22 118.61 53.12 119.65 54.32 121.73 52.53 121.22 51.93 122.26 51.03 121.74 50.43 122.78 49.53 122.26 48.93 122.57 48.67 123.31 48.03 123.61 47.77 124.13 48.37 125.17 47.48 125.69 48.08 126.73 47.18 127.25 47.78 129.34 45.99 128.3 44.79 127.26 45.68 126.74 45.08 125.7 45.98 125.18 45.37 124.14 46.27 123.99 46.09 123.62 45.67"/>
  </g>
  <path class="cls-8" d="m109.11,66.68l1.04,1.2,11.03-9.49,2.81,3.27,1.04-.9.52.6,1.04-.9.52.6,2.08-1.79,2.08-1.79-.52-.6,1.04-.9-.52-.6.87-.74-2.81-3.27-1.04-1.2-19.19,16.5Zm20.44-10.84l-.86.74.52.6-1.04.9-1.04.9-.52-.6-1.04.9-2.3-2.67,1.47-1.27.89,1.03,1.04-.9-.89-1.03,1.47-1.27,2.3,2.67Z"/>
  <path class="cls-2" d="m159.91,68.54c1.68,1.96.94,5.35-1.65,7.57-2.59,2.22-6.06,2.43-7.74.46-1.68-1.96-.94-5.35,1.65-7.57,2.59-2.22,6.06-2.43,7.74-.46Z"/>
  <path class="cls-8" d="m157.66,69.01c1.24,1.45.69,3.95-1.22,5.58-1.91,1.64-4.46,1.79-5.7.34-1.24-1.45-.69-3.95,1.22-5.58,1.91-1.64,4.46-1.79,5.7-.34Z"/>
  <path class="cls-15" d="m233.59,132.31c-.03-.14-3.53-13.88-9.55-27.59-7.06-16.1-14.81-25.68-21.26-26.28-14.06-1.31-25.33,22.02-28.49,31.11l-11.15-3.85c.58-1.69,14.59-41.44,40.73-39.01,11.35,1.05,21.79,12.3,31.04,33.42,6.39,14.6,9.98,28.72,10.13,29.32l-11.44,2.88Z"/>
  <path class="cls-14" d="m232.82,128.04s8.85,1.73,11.5-.94c0,0,16.52,2.35,20.06,17.98,0,0-6.78,7.67-21.53,4.13s-18.29-7.67-18.29-7.67c0,0-1.18-6.35,8.26-13.5Z"/>
  <path class="cls-13" d="m233.11,129.59s-6.19,3.39-6.93,11.65c0,0,19.4,11.88,31.64,5.68,0,0-2.3-11.18-16.16-16.01,0,0-5.6.15-8.55-1.33Z"/>
  <path class="cls-1" d="m168.65,104.78c-3.91-2.15-8.78-3.42-14.05-3.43-5.27,0-10.14,1.25-14.06,3.39-3.84,2.09-6.76,5.02-8.27,8.42,2.68,2.87,2.72,7.87.12,10.81,3.15,6.72,11.88,11.56,22.16,11.57,12.95.02,23.46-7.62,23.47-17.06,0-5.6-3.68-10.57-9.37-13.69Z"/>
  <path class="cls-6" d="m173.64,114.17c-.01,7.67-8.55,13.88-19.07,13.87-10.52-.01-19.05-6.25-19.03-13.92,0-3.62,1.91-6.91,5.01-9.37,3.92-2.14,8.79-3.4,14.06-3.39,5.27,0,10.14,1.28,14.05,3.43,3.1,2.47,4.99,5.77,4.99,9.39Z"/>
  <path class="cls-14" d="m131.8,130.04s3.99-7.08,16.96-6.49c0,0,13.51,7.96,15.6,13.86,2.09,5.9,2.92,12.98,0,14.45-2.92,1.47-24.72.29-31.81-10.32,0,0,2.64-3.54-.75-11.5Z"/>
  <path class="cls-13" d="m148.76,123.55s-11.31,1.18-14.95,6.34c0,0,8.05,18.26,30.55,13.39,0,0,3.13-7.94-15.6-19.73Z"/>
  <path class="cls-2" d="m92.72,125.9s-.89-.43-2.22-.94c-.67-.25-1.45-.51-2.29-.72-.42-.11-.86-.18-1.3-.25-.44-.08-.89-.1-1.34-.1-.45,0-.89.02-1.32.1-.43.07-.84.18-1.24.32-.19.08-.38.16-.57.24-.18.09-.36.18-.53.27-.17.1-.33.21-.48.3-.15.11-.3.22-.44.32-.27.22-.52.43-.73.63-.2.21-.4.37-.54.54-.29.31-.46.49-.46.49,0,0,.09-.23.28-.63.09-.2.23-.43.39-.69.16-.26.37-.54.62-.83.13-.14.27-.29.41-.44.15-.14.32-.28.49-.42.17-.14.37-.26.56-.4.2-.13.41-.23.63-.34.45-.19.92-.39,1.42-.48.5-.11,1.02-.15,1.53-.16.51.02,1.02.06,1.51.16.49.08.96.23,1.41.38.45.15.86.34,1.24.53.39.18.74.39,1.05.59,1.26.79,1.93,1.55,1.93,1.55Z"/>
  <path class="cls-2" d="m94.86,127.67s-1.06.17-2.6.5c-.38.09-.79.19-1.22.3-.43.11-.87.26-1.33.4-.45.15-.91.34-1.36.54-.45.2-.89.44-1.29.72-.42.26-.78.58-1.1.91-.31.35-.59.71-.79,1.11-.11.19-.17.41-.26.6-.06.21-.13.41-.18.61-.03.21-.07.41-.1.61-.02.2-.03.4-.05.59-.01.19,0,.37,0,.55,0,.18,0,.34.02.5.04.31.04.6.09.82.07.46.1.73.1.73,0,0-.13-.23-.33-.66-.11-.21-.2-.49-.31-.8-.12-.31-.19-.69-.26-1.1-.02-.21-.04-.43-.07-.65,0-.23.01-.47.02-.71.03-.24.07-.5.11-.75.07-.25.14-.51.25-.76.21-.51.51-1,.89-1.44.39-.42.82-.82,1.29-1.13.48-.32.98-.57,1.49-.78.5-.22,1.02-.36,1.52-.49,1-.25,1.95-.35,2.76-.38,1.62-.06,2.68.17,2.68.17Z"/>
  <path class="cls-2" d="m100.91,128.84s-.58.71-1.38,1.76c-.19.27-.4.56-.62.86-.22.31-.42.64-.64.98-.41.69-.81,1.44-1.06,2.22-.14.39-.21.78-.27,1.17-.02.38-.06.77.02,1.13.05.36.16.71.29,1.03.08.16.16.31.23.46.08.15.17.28.26.42.19.26.36.5.54.7.19.19.33.39.47.51.28.27.44.44.44.44,0,0-.21-.08-.58-.25-.19-.08-.39-.21-.63-.36-.24-.15-.5-.35-.76-.6-.12-.13-.26-.26-.39-.41-.12-.16-.24-.32-.36-.49-.21-.36-.43-.77-.53-1.23-.13-.46-.16-.95-.14-1.44.04-.49.13-.98.29-1.44.15-.46.35-.9.58-1.31.22-.41.49-.78.75-1.13.53-.69,1.1-1.27,1.63-1.71,1.04-.9,1.87-1.3,1.87-1.3Z"/>
  <path class="cls-2" d="m111.03,129.59s.44.66.85,1.75c.1.27.21.57.3.89.09.32.2.66.27,1.01.17.71.28,1.48.33,2.27.03.39.01.79.01,1.17-.01.39-.08.77-.11,1.14-.06.37-.15.72-.23,1.05-.1.33-.22.63-.32.91-.13.27-.27.51-.38.72-.1.22-.26.37-.36.51-.22.27-.35.41-.35.41,0,0,.05-.2.14-.52.04-.16.12-.34.15-.57.04-.23.09-.48.15-.74.03-.28.06-.57.11-.88.02-.31.03-.65.06-.98,0-.34,0-.7,0-1.06-.02-.36,0-.73-.04-1.09-.02-.37-.04-.73-.08-1.1-.03-.36-.05-.72-.09-1.07-.07-.7-.14-1.35-.2-1.91-.13-1.12-.2-1.9-.2-1.9Z"/>
  <path class="cls-2" d="m121.3,130.03s.56.56,1.18,1.56c.16.25.32.52.47.82.15.3.32.61.46.95.14.34.3.68.41,1.06.13.36.24.74.33,1.13.1.38.16.78.22,1.16.07.38.05.78.08,1.15.01.38-.04.74-.06,1.09-.05.34-.13.67-.2.96-.09.29-.21.55-.3.77-.08.23-.23.4-.32.54-.2.29-.32.44-.32.44,0,0,.03-.2.1-.53.03-.16.09-.35.1-.58.02-.22.04-.48.07-.75-.01-.28,0-.57-.01-.88-.03-.31-.06-.64-.1-.98-.06-.34-.1-.69-.18-1.04-.08-.35-.13-.71-.24-1.07-.08-.36-.18-.72-.28-1.07-.09-.35-.19-.7-.29-1.04-.1-.34-.2-.66-.3-.97-.11-.3-.19-.6-.28-.87-.35-1.08-.57-1.84-.57-1.84Z"/>
  <path class="cls-2" d="m230.33,120.24s.76-.03,1.86-.03c.55,0,1.18,0,1.87-.01.34,0,.69-.02,1.04-.02.35-.01.71-.02,1.06-.05,1.42-.08,2.8-.3,3.76-.71.12-.05.23-.1.34-.16.11-.05.21-.1.3-.16.19-.11.34-.22.47-.32.25-.2.39-.33.39-.33,0,0-.02.04-.05.13-.04.08-.07.22-.16.36-.08.15-.19.33-.35.51-.15.18-.35.39-.59.56-.23.19-.51.36-.81.51-.3.16-.63.29-.99.4-.35.1-.72.21-1.09.27-.38.06-.76.11-1.14.13-.77.05-1.53.01-2.23-.07-.7-.08-1.35-.21-1.9-.36-1.1-.28-1.78-.64-1.78-.64Z"/>
  <path class="cls-2" d="m225.69,108.61s.71-.3,1.79-.63c.54-.17,1.17-.35,1.85-.53.68-.18,1.4-.37,2.12-.54.72-.17,1.44-.34,2.11-.51.67-.17,1.29-.33,1.82-.48.26-.08.5-.16.71-.24.2-.08.38-.16.52-.24.13-.08.25-.15.31-.21.07-.06.11-.09.11-.09,0,0-.05.19-.26.47-.11.13-.26.29-.44.45-.19.15-.4.32-.66.47-.5.31-1.11.6-1.79.86-.34.12-.68.26-1.05.36-.36.11-.73.21-1.1.3-.74.18-1.49.31-2.19.41-.7.1-1.36.16-1.93.18-1.14.06-1.91-.03-1.91-.03Z"/>
  <path class="cls-2" d="m221.4,99.06s.45-.65,1.34-1.39c.44-.38.99-.77,1.6-1.15.32-.17.63-.38.98-.54.34-.17.69-.33,1.06-.47.36-.15.73-.27,1.09-.38.36-.12.74-.19,1.09-.27.35-.09.71-.12,1.04-.16.17-.02.33-.04.48-.05.16,0,.31,0,.45,0,.58-.02,1.06.03,1.4.08.34.05.52.08.52.08,0,0-.19.06-.51.15-.16.04-.36.1-.58.14-.22.06-.47.13-.74.21-.54.14-1.15.34-1.81.55-.33.11-.66.22-1,.35-.34.12-.68.24-1.02.39-.68.26-1.35.56-1.99.83-.31.14-.62.28-.91.42-.29.14-.56.27-.81.39-1.02.5-1.7.83-1.7.83Z"/>
  <path class="cls-2" d="m216.4,88.96s.16-.78.73-1.83c.15-.25.3-.54.5-.82.19-.28.4-.58.65-.86.24-.29.51-.57.8-.84.29-.27.61-.52.94-.76.35-.21.67-.46,1.05-.61.37-.17.73-.33,1.1-.43.19-.05.36-.11.54-.15.18-.04.36-.05.54-.07.35-.04.68-.08.98-.04.3.02.58.04.82.07.24.06.44.12.61.17.33.1.51.17.51.17,0,0-.2.03-.54.07-.17.02-.37.04-.6.05-.23.04-.48.11-.75.15-.27.03-.56.14-.85.23-.15.05-.3.08-.45.15-.15.07-.3.13-.46.2-.32.11-.61.31-.92.46-.32.15-.6.38-.91.57-.29.21-.58.43-.86.66-.27.24-.56.45-.8.7-.25.24-.5.47-.72.7-.23.22-.43.45-.63.66-.38.42-.71.77-.93,1.03-.23.26-.35.41-.35.41Z"/>
  <path class="cls-2" d="m208.36,80.92s-.16-.79-.11-1.99c.02-.6.09-1.29.23-2.03.08-.37.15-.75.26-1.13.1-.38.24-.76.38-1.14.15-.38.31-.75.5-1.11.18-.36.4-.69.62-1.01.45-.63.97-1.16,1.48-1.51.25-.18.5-.32.73-.42.22-.12.44-.17.6-.23.17-.05.31-.06.4-.09.09-.02.14-.03.14-.03,0,0-.16.12-.44.32-.13.11-.29.23-.46.39-.17.15-.34.35-.53.55-.36.42-.72.96-1.06,1.56-.17.3-.32.63-.47.96-.15.33-.3.68-.43,1.03-.27.7-.51,1.42-.73,2.1-.21.68-.4,1.33-.57,1.89-.32,1.12-.56,1.88-.56,1.88Z"/>
  <path class="cls-2" d="m199.29,78.05s-.58-.49-1.2-1.42c-.15-.24-.32-.49-.46-.78-.15-.28-.31-.58-.44-.91-.28-.65-.5-1.38-.64-2.12-.04-.38-.12-.75-.12-1.13,0-.38-.02-.75.04-1.11.03-.36.08-.7.18-1.02.09-.32.15-.62.29-.88.11-.26.23-.5.33-.7.12-.2.25-.36.34-.49.2-.26.31-.4.31-.4,0,0-.03.19-.1.5-.04.15-.08.34-.13.55-.03.22-.05.46-.1.72-.06.25-.04.54-.07.84-.04.29,0,.61,0,.93-.02.32.05.65.07.98.02.33.1.67.14,1.01.06.34.13.68.21,1.01.09.33.14.66.25.98.09.31.17.62.27.91.09.29.18.57.26.82.36,1.03.59,1.72.59,1.72Z"/>
  <path class="cls-2" d="m190.92,82.95s-.71-.33-1.63-1.03c-.47-.34-.98-.78-1.5-1.28-.25-.26-.53-.51-.78-.8-.25-.29-.51-.58-.74-.89-.48-.61-.9-1.28-1.23-1.94-.19-.32-.3-.67-.42-.98-.14-.31-.18-.64-.26-.93-.09-.28-.07-.57-.1-.81,0-.12-.02-.23-.02-.34.01-.1.03-.2.04-.29.05-.34.09-.53.09-.53,0,0,.06.19.15.51.02.08.04.16.07.26.04.09.08.19.12.3.1.21.16.44.3.68.14.24.24.51.42.77.17.27.32.55.52.83.19.29.39.57.6.86.21.29.43.59.65.88.21.3.46.58.68.87.23.29.45.57.67.84.44.54.86,1.05,1.21,1.49.71.88,1.17,1.51,1.17,1.51Z"/>
  <path class="cls-2" d="m182.82,92.43s-.8-.14-1.87-.71c-.27-.13-.55-.3-.84-.49-.29-.19-.59-.39-.88-.64-.29-.24-.6-.48-.88-.77-.29-.27-.56-.57-.82-.88-.27-.3-.5-.64-.73-.96-.24-.32-.41-.68-.6-1-.2-.32-.32-.67-.47-.98-.15-.31-.24-.63-.33-.92-.09-.29-.17-.55-.22-.79-.05-.24-.08-.45-.1-.62-.05-.35-.07-.54-.07-.54,0,0,.11.17.29.47.09.15.19.33.3.54.11.21.27.43.41.68.15.25.3.51.49.78.19.27.36.57.57.85.21.28.41.59.65.87.24.29.45.6.7.87.24.29.48.57.74.84.25.28.5.54.75.79.5.5.99.96,1.42,1.34.86.77,1.49,1.27,1.49,1.27Z"/>
  <path class="cls-2" d="m176.85,103.27s-.8-.11-1.91-.57c-.27-.12-.58-.24-.88-.4-.31-.15-.63-.32-.94-.53-.64-.39-1.29-.87-1.89-1.41-.28-.29-.59-.55-.84-.86-.26-.31-.52-.6-.72-.92-.22-.31-.43-.62-.57-.94-.15-.31-.32-.6-.41-.89-.1-.29-.19-.55-.26-.79-.06-.24-.08-.45-.11-.63-.05-.35-.07-.54-.07-.54,0,0,.11.17.29.47.08.15.19.32.31.53.14.19.29.41.44.65.14.24.37.47.55.73.18.26.43.5.65.77.21.28.5.51.74.78.25.27.54.51.8.77.28.25.57.49.84.74.29.23.56.48.85.69.28.22.55.44.81.63.26.2.51.39.74.56.95.69,1.58,1.16,1.58,1.16Z"/>
  <polygon class="cls-5" points="157.81 36.57 158.63 38.23 160.47 38.5 159.14 39.79 159.45 41.62 157.81 40.76 156.17 41.62 156.48 39.79 155.16 38.5 156.99 38.23 157.81 36.57"/>
  <polygon class="cls-5" points="114.5 103.3 115.52 105.36 117.79 105.69 116.14 107.29 116.53 109.55 114.5 108.48 112.47 109.55 112.86 107.29 111.22 105.69 113.49 105.36 114.5 103.3"/>
  <polygon class="cls-5" points="116.95 94.92 117.44 95.92 118.54 96.08 117.75 96.85 117.93 97.94 116.95 97.42 115.97 97.94 116.16 96.85 115.37 96.08 116.46 95.92 116.95 94.92"/>
  <polygon class="cls-5" points="255.68 108.55 256.32 109.85 257.77 110.06 256.72 111.08 256.97 112.52 255.68 111.84 254.39 112.52 254.63 111.08 253.59 110.06 255.03 109.85 255.68 108.55"/>
  <polygon class="cls-5" points="269.97 125.72 270.48 126.74 271.62 126.91 270.79 127.71 270.99 128.84 269.97 128.31 268.96 128.84 269.15 127.71 268.33 126.91 269.47 126.74 269.97 125.72"/>
  <polygon class="cls-5" points="209.13 135.6 209.64 136.63 210.78 136.8 209.95 137.6 210.15 138.73 209.13 138.19 208.12 138.73 208.31 137.6 207.49 136.8 208.63 136.63 209.13 135.6"/>
  <polygon class="cls-5" points="269.97 110.4 270.99 112.46 273.26 112.79 271.62 114.39 272 116.65 269.97 115.58 267.94 116.65 268.33 114.39 266.69 112.79 268.96 112.46 269.97 110.4"/>
  <polygon class="cls-5" points="131.83 12.77 132.71 14.55 134.66 14.83 133.25 16.21 133.58 18.16 131.83 17.24 130.08 18.16 130.41 16.21 129 14.83 130.95 14.55 131.83 12.77"/>
  <polygon class="cls-5" points="153.57 15.04 154.08 16.07 155.21 16.23 154.39 17.03 154.58 18.16 153.57 17.63 152.55 18.16 152.75 17.03 151.93 16.23 153.06 16.07 153.57 15.04"/>
  <polygon class="cls-5" points="72.31 62.51 72.85 63.61 74.06 63.78 73.19 64.63 73.39 65.84 72.31 65.27 71.23 65.84 71.44 64.63 70.56 63.78 71.77 63.61 72.31 62.51"/>
  <polygon class="cls-5" points="62.67 77.8 63.68 79.85 65.95 80.18 64.31 81.79 64.7 84.05 62.67 82.98 60.64 84.05 61.03 81.79 59.38 80.18 61.65 79.85 62.67 77.8"/>
  <polygon class="cls-5" points="73.85 86.53 74.59 88.05 76.26 88.29 75.06 89.47 75.34 91.13 73.85 90.35 72.35 91.13 72.64 89.47 71.43 88.29 73.1 88.05 73.85 86.53"/>
  <path class="cls-2" d="m30.12,142.17c-8.85,0-16.02,2.95-16.02,6.58v5.9c0,3.64,7.17,6.58,16.02,6.58s16.03-2.94,16.03-6.58v-5.9c0-3.63-7.17-6.58-16.03-6.58Z"/>
  <path class="cls-2" d="m61.46,143.25c0-2-1.14-3.62-2.54-3.62-.14,0-.28.02-.42.05h0s-.06.01-.06.01c-.01,0-.03,0-.04,0l-20.45,4.97,3.95,7.47,17.37-5.3h0c1.24-.25,2.19-1.76,2.19-3.59Z"/>
  <path class="cls-8" d="m30.12,145.89c-6.35,0-11.5,2.12-11.5,4.73s5.15,4.72,11.5,4.72,11.5-2.11,11.5-4.72-5.15-4.73-11.5-4.73Z"/>
  <path class="cls-15" d="m30.12,142.17c-8.85,0-16.02,2.95-16.02,6.58s7.17,6.58,16.02,6.58,16.03-2.94,16.03-6.58-7.17-6.58-16.03-6.58Zm0,10.64c-6.37,0-11.53-2.12-11.53-4.74s5.16-4.74,11.53-4.74,11.54,2.12,11.54,4.74-5.17,4.74-11.54,4.74Z"/>
  <path class="cls-4" d="m21.16,150.96c-.24,0-.47-.1-.65-.28-.33-.36-.31-.91.04-1.25.11-.1,2.75-2.53,6.87-2.79.49-.03.91.34.94.83.03.49-.34.91-.83.94-3.47.22-5.76,2.3-5.78,2.32-.17.16-.39.24-.6.24Z"/>
  <path class="cls-4" d="m31.6,147.35c0,.5-.52.91-1.17.91s-1.17-.41-1.17-.91.52-.91,1.17-.91,1.17.41,1.17.91Z"/>
</svg>