<svg id="Group_4" data-name="Group 4" xmlns="http://www.w3.org/2000/svg" xmlns:xlink="http://www.w3.org/1999/xlink" width="166.088" height="111.115" viewBox="0 0 166.088 111.115">
  <defs>
    <clipPath id="clip-path">
      <rect id="Rectangle_3" data-name="Rectangle 3" width="166.088" height="111.115" fill="none"/>
    </clipPath>
  </defs>
  <g id="Group_3" data-name="Group 3" clip-path="url(#clip-path)">
    <path id="Path_1" data-name="Path 1" d="M63.033,34.441a28.6,28.6,0,1,1-28.6-28.6,28.6,28.6,0,0,1,28.6,28.6" transform="translate(10.179 10.181)" fill="#ffc800"/>
    <path id="Path_2" data-name="Path 2" d="M25.075,29.7a31.257,31.257,0,0,0,5.482-9.485A46.491,46.491,0,0,1,39.5,31.723,46.605,46.605,0,0,1,25.075,29.7" transform="translate(43.72 35.245)" fill="#ffc800"/>
    <path id="Path_3" data-name="Path 3" d="M20.185,30.561a29.911,29.911,0,0,0,5-2.313A33.587,33.587,0,0,0,29.711,25.1a48.733,48.733,0,0,1,1.984,14.445,48.173,48.173,0,0,1-11.509-8.98" transform="translate(35.194 43.757)" fill="#ffc800"/>
    <path id="Path_4" data-name="Path 4" d="M14.247,27.628c6.952.837,7.32.3,9.276.258,1.026-.14,1.7-.285,1.7-.285A46.723,46.723,0,0,1,19.715,41.11a47.406,47.406,0,0,1-5.468-13.482" transform="translate(24.841 48.125)" fill="#ffc800"/>
    <path id="Path_5" data-name="Path 5" d="M10.146,25.077a31.433,31.433,0,0,0,9.482,5.484A46.222,46.222,0,0,1,8.122,39.505a46.627,46.627,0,0,1,2.025-14.428" transform="translate(14.142 43.724)" fill="#ffc800"/>
    <path id="Path_6" data-name="Path 6" d="M11.141,20.187a30.257,30.257,0,0,0,2.313,5,33.63,33.63,0,0,0,3.155,4.527A48.618,48.618,0,0,1,2.164,31.7a48.187,48.187,0,0,1,8.977-11.512" transform="translate(3.773 35.198)" fill="#ffc800"/>
    <path id="Path_7" data-name="Path 7" d="M13.479,14.25a29.664,29.664,0,0,0-.453,5.5,37.254,37.254,0,0,0,.195,3.778c.14,1.021.285,1.7.285,1.7A46.635,46.635,0,0,1,0,19.721,47.527,47.527,0,0,1,13.479,14.25" transform="translate(0 24.846)" fill="#ffc800"/>
    <path id="Path_8" data-name="Path 8" d="M16.618,10.143a8.729,8.729,0,0,0-1.073,1.35,29.967,29.967,0,0,0-4.412,8.135,46.132,46.132,0,0,1-8.947-11.5,46.232,46.232,0,0,1,14.431,2.017" transform="translate(3.813 14.149)" fill="#ffc800"/>
    <path id="Path_9" data-name="Path 9" d="M19.661,11.141a32.35,32.35,0,0,0-9.528,5.468A48.719,48.719,0,0,1,8.149,2.167a48.345,48.345,0,0,1,11.512,8.974" transform="translate(14.189 3.778)" fill="#ffc800"/>
    <path id="Path_10" data-name="Path 10" d="M25.248,13.484c-6.955-.842-7.32-.3-9.279-.258-1.021.134-1.7.28-1.7.28A46.515,46.515,0,0,1,19.778,0a47.614,47.614,0,0,1,5.471,13.482" transform="translate(24.888 0.003)" fill="#ffc800"/>
    <path id="Path_11" data-name="Path 11" d="M29.7,16.621a31.243,31.243,0,0,0-9.485-5.484,46.578,46.578,0,0,1,11.5-8.947A46.655,46.655,0,0,1,29.7,16.621" transform="translate(35.243 3.818)" fill="#ffc800"/>
    <path id="Path_12" data-name="Path 12" d="M30.563,19.66a30.647,30.647,0,0,0-2.31-5,33.7,33.7,0,0,0-3.161-4.521A48.763,48.763,0,0,1,39.54,8.151,48.336,48.336,0,0,1,30.563,19.66" transform="translate(43.75 14.193)" fill="#ffc800"/>
    <path id="Path_13" data-name="Path 13" d="M27.625,25.252a29.346,29.346,0,0,0,.45-5.5,37.507,37.507,0,0,0-.187-3.778c-.143-1.021-.285-1.7-.291-1.7a46.986,46.986,0,0,1,13.509,5.509,47.629,47.629,0,0,1-13.482,5.468" transform="translate(48.119 24.89)" fill="#ffc800"/>
    <path id="Path_14" data-name="Path 14" d="M63.034,34.434a28.586,28.586,0,0,1-28.6,28.6H34.4a28.6,28.6,0,0,1,0-57.2h.036a28.6,28.6,0,0,1,28.6,28.6" transform="translate(10.176 10.179)" fill="#ffc800"/>
    <path id="Path_15" data-name="Path 15" d="M39.493,31.712A45.866,45.866,0,0,1,25.078,29.69a31.162,31.162,0,0,0,5.468-9.474,46.2,46.2,0,0,1,8.947,11.5" transform="translate(43.726 35.248)" fill="#ffc800"/>
    <path id="Path_16" data-name="Path 16" d="M31.7,39.544a48.066,48.066,0,0,1-11.512-8.98,30.081,30.081,0,0,0,4.991-2.3,31.956,31.956,0,0,0,4.541-3.166A49.248,49.248,0,0,1,31.7,39.544" transform="translate(35.198 43.753)" fill="#ffc800"/>
    <path id="Path_17" data-name="Path 17" d="M25.216,27.6a45.822,45.822,0,0,1-5.493,13.463c0,.019-.016.019-.016.038A47.1,47.1,0,0,1,14.25,27.624c2.617.3,4.288.439,5.473.455,1.967.06,2.573-.17,3.792-.189,1.032-.132,1.7-.288,1.7-.288" transform="translate(24.846 48.126)" fill="#ffc800"/>
    <path id="Path_18" data-name="Path 18" d="M10.146,25.077a31.433,31.433,0,0,0,9.482,5.484A46.222,46.222,0,0,1,8.122,39.505a46.627,46.627,0,0,1,2.025-14.428" transform="translate(14.142 43.724)" fill="#ffc800"/>
    <path id="Path_19" data-name="Path 19" d="M11.141,20.187a30.257,30.257,0,0,0,2.313,5,33.63,33.63,0,0,0,3.155,4.527A48.618,48.618,0,0,1,2.164,31.7a48.187,48.187,0,0,1,8.977-11.512" transform="translate(3.773 35.198)" fill="#ffc800"/>
    <path id="Path_20" data-name="Path 20" d="M13.479,14.25a29.664,29.664,0,0,0-.453,5.5,37.254,37.254,0,0,0,.195,3.778c.14,1.021.285,1.7.285,1.7A46.635,46.635,0,0,1,0,19.721,47.527,47.527,0,0,1,13.479,14.25" transform="translate(0 24.846)" fill="#ffc800"/>
    <path id="Path_21" data-name="Path 21" d="M16.618,10.143a8.729,8.729,0,0,0-1.073,1.35,29.967,29.967,0,0,0-4.412,8.135,46.132,46.132,0,0,1-8.947-11.5,46.232,46.232,0,0,1,14.431,2.017" transform="translate(3.813 14.149)" fill="#ffc800"/>
    <path id="Path_22" data-name="Path 22" d="M19.661,11.141a32.35,32.35,0,0,0-9.528,5.468A48.719,48.719,0,0,1,8.149,2.167a48.345,48.345,0,0,1,11.512,8.974" transform="translate(14.189 3.778)" fill="#ffc800"/>
    <path id="Path_23" data-name="Path 23" d="M25.254,13.476a54.752,54.752,0,0,0-5.567-.455c-1.91-.038-2.516.187-3.72.209-1.012.134-1.7.291-1.7.291A46.633,46.633,0,0,1,19.687.154a1.3,1.3,0,0,1,.1-.154,47.409,47.409,0,0,1,5.471,13.476" transform="translate(24.883)" fill="#ffc800"/>
    <path id="Path_24" data-name="Path 24" d="M29.688,16.62a31.65,31.65,0,0,0-9.474-5.493A47.292,47.292,0,0,1,31.707,2.189,45.9,45.9,0,0,1,29.688,16.62" transform="translate(35.245 3.817)" fill="#ffc800"/>
    <path id="Path_25" data-name="Path 25" d="M39.544,8.151a48.786,48.786,0,0,1-8.977,11.518,30.161,30.161,0,0,0-2.31-5.015,35.313,35.313,0,0,0-3.166-4.521A48.635,48.635,0,0,1,39.544,8.151" transform="translate(43.748 14.192)" fill="#ffc800"/>
    <path id="Path_26" data-name="Path 26" d="M28.077,19.764c.074-1.394-.176-2.746-.189-3.794-.154-1.012-.288-1.7-.288-1.7a47.088,47.088,0,0,1,13.5,5.509,47.056,47.056,0,0,1-13.482,5.471,29.475,29.475,0,0,0,.458-5.49" transform="translate(48.123 24.888)" fill="#ffc800"/>
    <path id="Path_27" data-name="Path 27" d="M21.812,13.476a54.752,54.752,0,0,0-5.567-.455V.154a1.3,1.3,0,0,1,.1-.154,47.409,47.409,0,0,1,5.471,13.476" transform="translate(28.324)" fill="#ffdc00"/>
    <path id="Path_28" data-name="Path 28" d="M20.037,27.887c1.032-.132,1.7-.285,1.7-.285a45.884,45.884,0,0,1-5.493,13.463V28.077c1.967.063,2.576-.167,3.792-.189" transform="translate(28.324 48.126)" fill="#ffdc00"/>
    <path id="Path_29" data-name="Path 29" d="M16.283,63.033h-.038V5.838h.038a28.6,28.6,0,1,1,0,57.2" transform="translate(28.324 10.179)" fill="#ffdc00"/>
    <path id="Path_30" data-name="Path 30" d="M29.72,25.1A49.357,49.357,0,0,1,31.7,39.545a48.078,48.078,0,0,1-11.515-8.982,29.762,29.762,0,0,0,4.993-2.3A31.791,31.791,0,0,0,29.72,25.1" transform="translate(35.196 43.755)" fill="#ffdc00"/>
    <path id="Path_31" data-name="Path 31" d="M29.688,16.62a31.65,31.65,0,0,0-9.474-5.493A47.292,47.292,0,0,1,31.707,2.189,45.9,45.9,0,0,1,29.688,16.62" transform="translate(35.245 3.817)" fill="#ffdc00"/>
    <path id="Path_32" data-name="Path 32" d="M39.493,31.712A45.866,45.866,0,0,1,25.078,29.69a31.162,31.162,0,0,0,5.468-9.474,46.2,46.2,0,0,1,8.947,11.5" transform="translate(43.726 35.248)" fill="#ffdc00"/>
    <path id="Path_33" data-name="Path 33" d="M28.255,14.654a35.3,35.3,0,0,0-3.163-4.521,48.613,48.613,0,0,1,14.45-1.981,48.7,48.7,0,0,1-8.977,11.518,30.161,30.161,0,0,0-2.31-5.015" transform="translate(43.75 14.192)" fill="#ffdc00"/>
    <path id="Path_34" data-name="Path 34" d="M28.077,19.764c.074-1.394-.176-2.746-.189-3.794-.154-1.012-.288-1.7-.288-1.7a47.088,47.088,0,0,1,13.5,5.509,47.056,47.056,0,0,1-13.482,5.471,29.475,29.475,0,0,0,.458-5.49" transform="translate(48.123 24.888)" fill="#ffdc00"/>
    <path id="Path_35" data-name="Path 35" d="M41.733,32.438H38.487A22.235,22.235,0,0,0,16.278,10.229l-.03-3.246h.03A25.48,25.48,0,0,1,41.733,32.438" transform="translate(28.33 12.175)" fill="#fff"/>
    <path id="Path_36" data-name="Path 36" d="M155.986,68.409a24.949,24.949,0,0,1-24.95,24.945H26.684a21.667,21.667,0,1,1,0-43.335,21.418,21.418,0,0,1,10.577,2.76,13.379,13.379,0,0,1-.815-4.53,13.2,13.2,0,0,1,23.776-7.9A33.225,33.225,0,0,1,91.084,9.485c.746-.063,1.5-.085,2.269-.085a33.274,33.274,0,0,1,33.271,33.266c0,.42-.047.815-.069,1.237a24.865,24.865,0,0,1,29.43,24.506" transform="translate(8.73 16.39)" fill="#4bbbe2"/>
    <path id="Path_37" data-name="Path 37" d="M155.986,68.409a24.949,24.949,0,0,1-24.95,24.945H26.684a21.667,21.667,0,1,1,0-43.335,21.418,21.418,0,0,1,10.577,2.76,13.379,13.379,0,0,1-.815-4.53,13.2,13.2,0,0,1,23.776-7.9A33.225,33.225,0,0,1,91.084,9.485c.746-.063,1.5-.085,2.269-.085a33.274,33.274,0,0,1,33.271,33.266c0,.42-.047.815-.069,1.237a24.865,24.865,0,0,1,29.43,24.506Z" transform="translate(8.73 16.39)" fill="none" stroke="#050406" stroke-miterlimit="10" stroke-width="1"/>
  </g>
</svg>
